<svg width="77" height="95" viewBox="0 0 77 95" fill="none" xmlns="http://www.w3.org/2000/svg">
<circle cx="37" cy="58" r="37" fill="#46A358" fill-opacity="0.13"/>
<g clip-path="url(#clip0_18_305)">
<path d="M28.1295 46.357C40.7024 48.0205 53.392 48.282 66.0232 47.1369C66.8797 47.0603 66.8886 45.7078 66.0232 45.7844C53.392 46.9295 40.7024 46.668 28.1295 45.0045C27.2775 44.8918 27.282 46.2488 28.1295 46.357Z" fill="#727272"/>
<path d="M31.0304 92.0306C36.4649 92.7249 41.9353 93.0631 47.4147 92.9864C52.2349 92.9188 57.925 93.1307 62.4448 91.2237C63.2295 90.89 62.8843 89.5826 62.0861 89.9208C57.4497 91.8774 51.5085 91.6114 46.5493 91.6429C41.3569 91.679 36.1779 91.3364 31.0259 90.6782C30.1739 90.57 30.1784 91.9224 31.0304 92.0306Z" fill="#727272"/>
<path d="M27.6047 45.3156C21.3317 51.1673 18.4082 59.8909 19.0987 68.3981C19.4529 72.7937 20.6905 77.0676 22.5513 81.053C24.2463 84.6867 26.7438 89.8937 30.4924 91.7827C31.2636 92.1704 31.9452 91.0073 31.1695 90.6151C27.681 88.8568 25.309 83.794 23.7127 80.3722C21.8563 76.3823 20.6412 72.0499 20.3901 67.6452C19.9417 59.7061 22.7128 51.7219 28.5598 46.2713C29.1965 45.6807 28.2414 44.725 27.6047 45.3156Z" fill="#727272"/>
<path d="M65.5478 46.952C72.1661 51.1222 72.7893 60.1163 72.6279 67.1988C72.4486 75.0974 71.4755 87.6125 62.0862 89.9207C61.2477 90.1281 61.6019 91.431 62.4449 91.2236C72.2468 88.8162 73.6547 76.3958 73.9507 68.0374C74.2242 60.2155 73.5337 50.3874 66.2248 45.7844C65.4895 45.3245 64.8169 46.4922 65.5478 46.952Z" fill="#727272"/>
<path d="M32.5774 46.3659C27.6406 51.7083 25.4614 60.6302 26.2954 67.7849C26.7797 71.9461 28.089 76.0757 29.062 80.1377C30.0395 84.2087 31.0484 88.2481 33.2634 91.8413C33.7208 92.5806 34.8821 91.8999 34.4248 91.1605C32.3442 87.7883 31.3757 84.0193 30.4565 80.2008C29.5687 76.522 28.5329 72.8387 27.8468 69.1194C26.5465 62.0368 28.5822 52.6776 33.528 47.3217C34.1154 46.6815 33.1648 45.7257 32.5774 46.3659Z" fill="#727272"/>
<path d="M39.2404 46.9295C35.5636 53.4395 33.631 60.8332 33.7297 68.326C33.779 71.9236 34.2902 75.5258 35.2677 78.9881C36.4828 83.2846 38.3302 87.3601 39.1373 91.7737C39.2942 92.6303 40.5901 92.2651 40.4332 91.413C39.7292 87.5494 38.236 83.9518 37.0478 80.2279C35.8954 76.6123 35.2049 72.8839 35.0883 69.0834C34.8551 61.568 36.7115 54.1428 40.4018 47.6103C40.8322 46.8529 39.6709 46.1721 39.2404 46.9295Z" fill="#727272"/>
<path d="M43.2045 48.2235C44.4825 55.7343 42.931 63.2587 43.061 70.8011C43.1193 74.2454 43.8861 77.4508 44.3345 80.8411C44.8008 84.3621 44.0027 87.9823 43.5677 91.4762C43.4601 92.3373 44.8053 92.3283 44.9129 91.4762C45.3523 87.9507 46.146 84.3035 45.6797 80.7509C45.2044 77.1172 44.4017 73.6729 44.3973 69.9761C44.3883 62.5779 45.7514 55.2339 44.5004 47.8673C44.3524 47.0107 43.0566 47.3714 43.2045 48.2235Z" fill="#727272"/>
<path d="M48.2486 47.5967C50.6116 54.3817 50.8986 61.5409 51.1363 68.6595C51.3963 76.3913 51.0107 84.0013 49.5759 91.6113C49.4144 92.4634 50.7103 92.8286 50.8717 91.972C52.329 84.2447 52.746 76.5085 52.4815 68.6595C52.2393 61.4237 51.9434 54.1292 49.5445 47.236C49.262 46.4245 47.9616 46.7762 48.2486 47.5967Z" fill="#727272"/>
<path d="M53.9077 47.6284C54.4054 49.1567 55.4815 50.1755 56.3066 51.519C57.2482 53.0519 57.7638 54.7875 58.0418 56.5548C58.6472 60.4139 58.3602 64.4534 58.3512 68.344C58.3423 72.5773 58.6651 77.0541 57.5755 81.1882C56.616 84.8174 54.4143 87.9462 53.679 91.652C53.5086 92.5041 54.8044 92.8648 54.9748 92.0127C55.764 88.0454 58.2033 84.6867 59.0642 80.7374C59.9475 76.6979 59.6875 72.4511 59.6964 68.344C59.7054 64.548 59.9341 60.6664 59.4364 56.8929C59.2166 55.2249 58.84 53.5748 58.1226 52.051C57.3244 50.3514 55.7864 49.0575 55.208 47.2722C54.9345 46.4472 53.6341 46.7988 53.9077 47.6284Z" fill="#727272"/>
<path d="M60.4498 47.4163C63.1223 49.941 64.4091 53.9714 65.3732 57.4518C66.3776 61.0765 66.0413 64.9447 65.8171 68.655C65.3642 76.1839 64.0997 83.7038 60.5081 90.4121C60.0956 91.1785 61.2569 91.8638 61.6695 91.0929C65.4987 83.9382 66.7767 75.8954 67.2026 67.8706C67.4179 63.8311 67.5927 59.8863 66.3327 55.9957C65.2387 52.6189 64.0325 48.9492 61.4004 46.4561C60.7727 45.8655 59.8176 46.8212 60.4498 47.4163Z" fill="#727272"/>
<path d="M32.4697 50.7977C32.3307 51.1538 32.1783 51.5055 32.0124 51.8526C31.8016 52.2899 32.0482 52.8895 32.5953 52.8715C32.9854 52.858 33.2948 52.6822 33.5728 52.4162C33.6625 52.3305 33.7521 52.2403 33.8373 52.1547C33.9494 52.042 33.8015 52.2223 33.8867 52.1186C33.8687 52.1457 33.7746 52.1367 33.8598 52.1457C33.6445 51.8616 33.4293 51.5731 33.2096 51.2891C33.1513 51.5911 33.0885 51.8932 33.0302 52.1998C32.9585 52.5559 33.1334 52.9301 33.501 53.0338C33.8329 53.124 34.2588 52.9211 34.3306 52.5604C34.3889 52.2584 34.4516 51.9563 34.5099 51.6498C34.5996 51.1899 34.3171 50.8383 33.8598 50.7932C33.4876 50.7571 33.1513 50.9555 32.8867 51.1989C32.7926 51.2846 32.7119 51.3747 32.6177 51.4604C32.5863 51.4875 32.5594 51.5145 32.528 51.5416C32.5415 51.528 32.5549 51.519 32.5684 51.5055C32.5011 51.5416 32.5011 51.5461 32.5774 51.5145C32.5011 51.5325 32.5056 51.537 32.5908 51.5145C32.7836 51.8526 32.9764 52.1908 33.1737 52.5334C33.3889 52.0826 33.5862 51.6227 33.7656 51.1583C33.8956 50.8157 33.6221 50.4145 33.2948 50.3243C32.9181 50.2206 32.6043 50.4551 32.4697 50.7977Z" fill="#727272"/>
<path d="M29.1385 58.8901C29.0757 59.2688 29.0129 59.6475 28.9501 60.0217C28.9008 60.3238 28.9815 60.6213 29.2595 60.7836C29.5061 60.9279 29.8783 60.9008 30.0756 60.6799C30.2056 60.5311 30.3357 60.3824 30.4657 60.2336C30.5509 60.1344 30.672 59.9496 30.7751 59.8955C30.663 59.927 30.5509 59.9586 30.4343 59.9856C30.4567 59.9811 30.4836 59.9811 30.5061 59.9766C30.394 59.9451 30.2819 59.9135 30.1653 59.8864C30.1832 59.9 30.2011 59.9135 30.2191 59.927C30.107 59.7332 29.9949 59.5393 29.8873 59.3409C29.9231 59.7287 29.8155 60.1615 29.7707 60.5537C29.7079 61.1172 30.376 61.3246 30.7841 61.1398C31.3132 60.8918 31.6674 60.4365 31.8557 59.891C31.4791 59.9901 31.1069 60.0893 30.7303 60.1885C30.7168 60.1028 30.7033 60.0172 30.6899 59.9315C30.4702 60.7746 31.7705 61.1353 31.9858 60.2922C32.0844 59.909 31.9947 59.4897 31.6808 59.2327C31.2773 58.9036 30.7347 59.0209 30.5554 59.5303C30.4747 59.7557 30.3088 59.8729 30.1025 59.9721C30.4388 60.166 30.7751 60.3598 31.1159 60.5582C31.1831 59.9541 31.506 58.8811 30.6809 58.6512C29.9859 58.4573 29.4972 59.2868 29.1205 59.7242C29.4972 59.9451 29.8693 60.1615 30.246 60.3824C30.3088 60.0037 30.3715 59.625 30.4343 59.2508C30.4926 58.8901 30.3401 58.5204 29.9635 58.4167C29.6451 58.3311 29.1967 58.5294 29.1385 58.8901Z" fill="#727272"/>
<path d="M28.56 67.0366C28.6048 67.5686 28.6541 68.1005 28.699 68.628C28.7662 69.3809 29.7751 69.5567 30.0217 68.8083C30.1563 68.3936 30.3446 68.0194 30.5822 67.6497C30.1742 67.5956 29.7617 67.5415 29.3536 67.4874C29.5106 67.8796 29.6182 68.2809 29.6765 68.7047C29.7437 69.1825 30.3222 69.2637 30.663 69.1104C30.8333 69.0338 30.9723 68.885 31.062 68.7227C31.1024 68.6506 31.1338 68.5649 31.1607 68.4883C31.1741 68.4477 31.1831 68.4071 31.1965 68.3665C31.219 68.2989 31.21 68.3034 31.1786 68.3801C31.08 68.4387 30.9813 68.4973 30.8827 68.5559C30.9051 68.5469 30.932 68.5424 30.9544 68.5333C30.8333 68.5333 30.7168 68.5333 30.5957 68.5333C30.5867 68.5288 30.5778 68.5243 30.5733 68.5153C30.4926 68.4342 30.4119 68.353 30.3311 68.2719C30.3446 68.2899 30.3536 68.3079 30.367 68.326C30.3446 68.1501 30.3222 67.9788 30.2998 67.803C30.2953 67.8255 30.2953 67.8481 30.2908 67.8661C30.2415 68.2268 30.376 68.5919 30.7616 68.7001C31.0755 68.7858 31.5418 68.5919 31.5911 68.2268C31.6315 67.9337 31.6091 67.6677 31.3938 67.4468C31.2145 67.2665 30.941 67.1808 30.6899 67.2079C30.4298 67.2394 30.2011 67.3927 30.0621 67.6136C30.0038 67.7083 29.9231 67.8391 29.9186 67.9473C29.9141 68.105 29.8469 67.9923 29.9904 67.9292C30.3177 68.0645 30.6495 68.1997 30.9768 68.335C30.9185 67.9157 30.8109 67.5145 30.654 67.1177C30.4388 66.5857 29.7572 66.4325 29.4254 66.9554C29.1294 67.4198 28.9008 67.9157 28.7304 68.4342C29.1698 68.4928 29.6092 68.5559 30.0531 68.6145C30.0083 68.0825 29.959 67.5505 29.9141 67.023C29.8827 66.6579 29.6272 66.3468 29.2415 66.3468C28.8963 66.3603 28.5286 66.6714 28.56 67.0366Z" fill="#727272"/>
<path d="M30.1786 76.5762C30.2234 77.3561 30.6135 78.0369 31.2906 78.4336C31.739 78.6906 32.295 78.3615 32.304 77.8475C32.3084 77.4508 32.3981 77.0856 32.5506 76.7205C32.1739 76.8196 31.8018 76.9188 31.4251 77.018C31.6089 77.2434 31.8062 77.4418 32.026 77.6266C32.3847 77.9287 33.0393 77.8701 33.1514 77.3291C33.1783 77.2074 33.2097 77.1037 33.2501 76.991C32.8734 77.0901 32.5013 77.1893 32.1246 77.2885C32.165 77.266 32.1874 77.293 32.1829 77.3651C32.3264 77.7033 32.8196 77.7754 33.1021 77.6086C33.4474 77.4057 33.4877 77.0225 33.3442 76.6844C33.2859 76.5491 33.1918 76.4274 33.0752 76.3327C32.6582 76.0036 32.147 76.1254 31.9497 76.6303C31.9049 76.743 31.8735 76.8512 31.8511 76.9684C32.2277 76.8692 32.5999 76.77 32.9766 76.6709C32.7568 76.486 32.5595 76.2831 32.3757 76.0622C32.017 75.6204 31.4251 75.9495 31.2502 76.3598C31.0529 76.8332 30.9633 77.3336 30.9543 77.8475C31.2906 77.6537 31.6269 77.4598 31.9677 77.2614C31.7076 77.1127 31.5372 76.8782 31.5193 76.5717C31.4744 75.7151 30.1292 75.7061 30.1786 76.5762Z" fill="#727272"/>
<path d="M32.9497 85.8497C33.1066 86.2555 33.2949 86.6297 33.5505 86.9858C33.9496 87.5358 34.7433 87.333 34.806 86.6432C34.8105 86.6026 34.8823 86.1022 34.8554 86.0796C34.6625 86.2014 34.4742 86.3231 34.2814 86.4448C34.3263 86.5079 34.3666 86.5665 34.4159 86.6251C34.5863 86.8415 34.7971 87.0264 35.0706 87.103C35.2813 87.1571 35.5279 87.1301 35.7118 87.0129C35.8329 86.9317 35.918 86.837 35.9808 86.7063C36.0032 86.6522 36.0257 86.5981 36.0481 86.544C36.1512 86.2194 35.9539 86.1653 35.4607 86.3817C35.7297 87.2022 37.0301 86.8506 36.7565 86.021C36.5682 85.453 36.0212 85.0833 35.4248 85.3087C35.1827 85.4034 34.9719 85.5837 34.8554 85.8182C34.8195 85.8903 34.6894 86.2014 34.7343 86.2915C34.9944 86.1428 35.2499 85.9895 35.51 85.8407C35.4741 85.7956 35.4383 85.755 35.4069 85.71C35.1917 85.2727 34.5684 85.0247 34.12 85.187C33.4878 85.4124 33.5147 86.0887 33.4653 86.6477C33.8823 86.535 34.2993 86.4223 34.7208 86.3051C34.537 86.0526 34.3711 85.7866 34.2545 85.4936C33.9317 84.6911 32.6313 85.0382 32.9497 85.8497Z" fill="#727272"/>
<path d="M40.1374 50.9825C39.6532 51.3476 39.2496 51.7804 38.9851 52.335C38.6398 53.0563 39.4424 53.6243 40.0433 53.1555C40.1868 53.0428 40.3303 52.9301 40.4737 52.8173C40.5365 52.7678 40.5993 52.7182 40.6666 52.6686C40.6979 52.6415 40.7293 52.619 40.7607 52.5919C40.8728 52.5108 40.8145 52.5243 40.5858 52.628C40.4737 52.5964 40.3616 52.5649 40.2451 52.5378C40.2585 52.5468 40.272 52.5559 40.2854 52.5649C40.2047 52.4837 40.124 52.4026 40.0433 52.3214C40.0298 52.2628 40.0119 52.2087 39.9984 52.1501C40.0029 52.087 40.0029 52.078 39.9895 52.1321C39.9581 52.1546 39.9491 52.3079 39.9491 52.3304C39.9177 52.5378 39.9357 52.7407 40.0433 52.9301C40.1419 53.1014 40.3168 53.2546 40.5096 53.3042C40.5903 53.3268 40.6935 53.3358 40.7787 53.3358C40.8594 53.3358 40.9311 53.3223 41.0028 53.2952C41.097 53.2682 41.0656 53.2592 40.9042 53.2682C40.8056 53.2096 40.7069 53.151 40.6083 53.0924C40.6217 53.1059 40.6352 53.1194 40.6486 53.1329C40.5903 53.0337 40.532 52.9346 40.4737 52.8354C40.4782 52.8489 40.4827 52.8669 40.4872 52.8805C40.5096 52.7046 40.532 52.5333 40.5545 52.3575C40.5455 52.371 40.541 52.3845 40.532 52.3981C40.124 53.1645 41.2853 53.8497 41.6934 53.0788C41.8683 52.7542 41.8279 52.3891 41.5544 52.1321C41.4109 51.9968 41.2181 51.9157 41.0208 51.9112C40.9087 51.9067 40.7787 51.9788 40.68 51.9698C40.7921 52.0013 40.9042 52.0329 41.0208 52.0599C41.0029 52.0464 40.9849 52.0329 40.9715 52.0239C41.0522 52.105 41.1329 52.1862 41.2136 52.2673C41.2046 52.2493 41.1957 52.2313 41.1867 52.2132C41.2181 52.3259 41.2495 52.4386 41.2764 52.5559C41.2674 52.4702 41.2809 52.5153 41.3122 52.3891C41.3481 52.2313 41.3526 52.0599 41.3167 51.8976C41.2405 51.573 40.9984 51.3386 40.6755 51.28C40.3392 51.2169 40.1105 51.3927 39.855 51.5911C39.5994 51.7894 39.3438 51.9923 39.0882 52.1907C39.4424 52.4657 39.7922 52.7362 40.1464 53.0112C40.3078 52.6776 40.5141 52.371 40.8145 52.1456C41.106 51.9292 41.2539 51.5595 41.0567 51.2214C40.8908 50.9374 40.4334 50.7661 40.1374 50.9825Z" fill="#727272"/>
<path d="M37.5051 58.5925C37.393 59.1335 37.2853 59.6745 37.1732 60.22C37.0342 60.9098 37.7786 61.3065 38.2987 60.8782C38.4512 60.752 38.5857 60.5942 38.6843 60.4229C38.7516 60.3057 38.8323 60.0667 38.8682 60.0081C38.7875 60.0893 38.7067 60.1704 38.626 60.2516C38.6485 60.238 38.6664 60.2245 38.6888 60.2065C38.5767 60.238 38.4646 60.2696 38.348 60.2966C38.3749 60.2921 38.4018 60.2921 38.4287 60.2876C38.3166 60.2561 38.2045 60.2245 38.088 60.1975C37.9803 60.1479 37.9759 59.972 38.0073 60.202C38.0162 60.2606 38.0297 60.3102 38.0476 60.3643C38.1104 60.5671 38.2225 60.7475 38.3929 60.8737C38.5498 60.9909 38.7337 61.054 38.9309 61.0495C39.052 61.045 39.1641 61.0135 39.2717 60.9594C39.33 60.9368 39.3793 60.9053 39.4242 60.8647C39.5408 60.7835 39.5094 60.7881 39.3345 60.8692C39.2224 60.8376 39.1103 60.8061 38.9937 60.779C39.0117 60.7881 39.0161 60.7971 39.0296 60.8331C39.3166 61.6491 40.6169 61.2975 40.3254 60.4725C40.1999 60.1163 40.0161 59.7872 39.6708 59.6114C39.4914 59.5167 39.2672 59.4897 39.0699 59.5347C38.8727 59.5798 38.7561 59.7106 38.5857 59.7917C38.6978 59.7602 38.8099 59.7286 38.9265 59.7015C38.904 59.7015 38.8771 59.7015 38.8547 59.7015C38.9668 59.7331 39.0789 59.7647 39.1955 59.7917C39.3166 60.0036 39.3524 60.0352 39.3031 59.8864C39.2941 59.8278 39.2852 59.7692 39.2762 59.7106C39.2448 59.5934 39.1955 59.4716 39.1327 59.3724C38.9668 59.111 38.6933 58.9396 38.3839 58.9442C38.079 58.9487 37.801 59.1245 37.6575 59.3905C37.5364 59.6159 37.5454 59.7511 37.3391 59.9225C37.7158 60.1434 38.088 60.3598 38.4646 60.5807C38.5767 60.0397 38.6843 59.4987 38.7964 58.9577C38.9758 58.1011 37.6799 57.7404 37.5051 58.5925Z" fill="#727272"/>
<path d="M36.9854 65.5038C36.8464 66.2297 36.7567 66.96 36.7343 67.6949C36.7163 68.2088 37.3172 68.5334 37.7476 68.2809C37.9449 68.1637 38.0884 68.0059 38.196 67.8031C38.2364 67.7264 38.353 67.5506 38.3306 67.483C38.3261 67.4739 38.2857 67.5326 38.3037 67.5235C38.1916 67.5551 38.0795 67.5867 37.9629 67.6137C37.9539 67.6182 37.9405 67.6182 37.9315 67.6227C37.8508 67.5416 37.7701 67.4604 37.6894 67.3793C37.7656 67.4785 37.7566 67.4694 37.7656 67.5731C37.8149 68.1277 38.4785 68.4973 38.9135 68.051C38.9628 67.9969 39.0121 67.9473 39.0659 67.8977C38.9718 67.9428 38.8731 67.9338 38.779 67.8797C38.7207 67.7805 38.6624 67.6813 38.6041 67.5821C38.613 67.6092 38.622 67.6362 38.6355 67.6633C38.761 68.0059 39.0928 68.2404 39.465 68.1367C39.7923 68.0465 40.0614 67.6498 39.9358 67.3026C39.5861 66.3469 38.5682 66.4686 37.9629 67.0952C38.344 67.253 38.7296 67.4153 39.1108 67.5731C39.057 66.9194 38.7341 66.2116 37.9629 66.2612C37.649 66.2792 37.371 66.4641 37.2051 66.7301C37.1468 66.8247 37.1064 66.9329 37.0616 67.0366C37.0123 67.1493 36.9271 67.1899 37.0661 67.1088C37.4024 67.3026 37.7387 67.4965 38.0795 67.6949C38.0974 67.0772 38.1647 66.4686 38.2812 65.86C38.4471 65.0124 37.1513 64.6517 36.9854 65.5038Z" fill="#727272"/>
<path d="M37.6534 73.2265C37.8059 73.8306 37.9897 74.4212 38.2049 75.0028C38.3798 75.4762 38.9403 75.6746 39.3304 75.3004C39.5008 75.1336 39.6174 74.9397 39.6757 74.7053C39.6981 74.6106 39.716 74.4979 39.7205 74.4032C39.734 74.1147 39.7026 74.3536 39.7295 74.3401C39.6174 74.3716 39.5053 74.4032 39.3887 74.4303C39.4201 74.4303 39.447 74.4257 39.4784 74.4257C39.3663 74.3942 39.2542 74.3626 39.1376 74.3356C39.0479 74.295 39.0748 74.2544 39.1466 74.3807C39.1824 74.4438 39.2138 74.4979 39.2587 74.5565C39.3977 74.7368 39.5681 74.8585 39.7967 74.8901C39.9985 74.9172 40.1913 74.8676 40.3617 74.7503C40.4559 74.6827 40.5411 74.6061 40.6039 74.5069C40.6308 74.4528 40.6577 74.3987 40.6801 74.3446C40.7698 74.1688 40.6935 74.2139 40.4514 74.4844C40.3303 74.4844 40.2138 74.4844 40.0927 74.4844C40.0389 74.4393 39.9896 74.3897 39.9357 74.3446C39.9044 74.2319 39.873 74.1192 39.8461 74.002C39.8461 74.029 39.8461 74.0561 39.8461 74.0831C39.8326 74.9532 41.1778 74.9532 41.1913 74.0831C41.2002 73.6278 40.8863 73.2716 40.4514 73.1814C40.2182 73.1319 39.9851 73.1814 39.7923 73.3212C39.6981 73.3888 39.6219 73.4655 39.5591 73.5601C39.5456 73.5872 39.5322 73.6188 39.5143 73.6458C39.3977 73.8712 39.4291 73.8667 39.6129 73.6323C39.725 73.6007 39.8371 73.5692 39.9537 73.5421C39.9313 73.5466 39.9088 73.5466 39.8864 73.5511C39.9985 73.5827 40.1106 73.6142 40.2272 73.6413C40.42 73.736 40.3214 73.7044 40.2496 73.5782C40.1958 73.479 40.1241 73.3843 40.0434 73.3122C39.7878 73.0823 39.4515 73.0237 39.1331 73.1364C38.8775 73.2265 38.6847 73.4249 38.5547 73.6548C38.4829 73.7856 38.4471 73.9163 38.4202 74.0606C38.4067 74.1237 38.4202 74.304 38.3798 74.3446C38.7565 74.4438 39.1286 74.543 39.5053 74.6421C39.2901 74.0606 39.1062 73.4655 38.9538 72.8659C38.734 72.0273 37.4382 72.3835 37.6534 73.2265Z" fill="#727272"/>
<path d="M38.3302 79.687C38.5724 80.4038 38.8818 81.0936 39.2629 81.7428C39.5364 82.2071 40.1418 82.153 40.4242 81.7428C40.5005 81.63 40.5543 81.5128 40.5901 81.3821C40.5946 81.3415 40.5991 81.3054 40.6081 81.2649C40.6798 81.0034 40.617 81.0124 40.4108 81.2964C40.2897 81.2964 40.1731 81.2964 40.0521 81.2964C39.8637 81.2378 39.9489 81.2513 40.0476 81.3595C40.1193 81.4362 40.209 81.5173 40.3032 81.5714C40.496 81.6796 40.7247 81.7202 40.9444 81.7022C41.4466 81.6661 41.7918 81.3325 41.9577 80.8772C42.2582 80.0611 40.9578 79.705 40.6619 80.5165C40.7471 80.2911 40.9578 80.4173 40.922 80.3091C40.8951 80.2325 40.7381 80.1288 40.6664 80.0882C40.4467 79.962 40.1821 79.9349 39.9445 80.0161C39.7247 80.0882 39.5499 80.255 39.4378 80.4579C39.3391 80.6382 39.366 80.9087 39.2584 81.062C39.644 81.062 40.0341 81.062 40.4198 81.062C40.0924 80.5075 39.8279 79.9394 39.6216 79.3308C39.3526 78.5103 38.0522 78.8619 38.3302 79.687Z" fill="#727272"/>
<path d="M40.1016 87.4007C40.1061 87.7749 40.1599 88.149 40.2765 88.5007C40.3617 88.7577 40.5635 88.947 40.837 88.9831C41.0836 89.0146 41.393 88.9019 41.5051 88.6585C41.5813 88.4962 41.6575 88.3339 41.7338 88.1761C41.7696 88.0995 41.8055 88.0273 41.8369 87.9507C41.8548 87.9146 41.8728 87.874 41.8907 87.838C41.9266 87.7703 41.9266 87.7703 41.8907 87.838C41.7921 87.8966 41.6934 87.9552 41.5948 88.0138C41.6082 88.0093 41.6262 88.0003 41.6396 87.9958C41.5185 87.9958 41.402 87.9958 41.2809 87.9958C41.2585 87.9867 41.2316 87.9732 41.2091 87.9642C41.1284 87.8831 41.0477 87.8019 40.967 87.7208C40.8998 87.608 40.9625 87.7027 40.9894 87.7794C41.0119 87.8515 41.0388 87.9191 41.0612 87.9913C41.1105 88.131 41.1598 88.2753 41.2047 88.415C41.3212 88.7622 41.6665 88.9876 42.0342 88.8884C42.366 88.7982 42.6216 88.4015 42.505 88.0544C42.3122 87.4953 42.1508 86.5756 41.3706 86.6793C40.7652 86.7605 40.5635 87.4998 40.3393 87.9777C40.7473 88.0318 41.1598 88.0859 41.5679 88.14C41.4827 87.874 41.4423 87.6576 41.4378 87.3962C41.4333 87.0445 41.1329 86.7019 40.7652 86.7199C40.411 86.7379 40.0971 87.022 40.1016 87.4007Z" fill="#727272"/>
<path d="M46.2803 88.2211C46.2444 88.5277 46.2085 88.8388 46.1727 89.1453C46.1368 89.4339 46.4058 89.7269 46.6659 89.799C46.9708 89.8847 47.2533 89.7359 47.4237 89.488C47.5448 89.3121 47.6658 89.1408 47.7869 88.965C47.8407 88.8838 47.899 88.8072 47.9528 88.726C47.9752 88.6945 47.9976 88.6629 48.02 88.6314C48.1187 88.4961 48.1052 88.5051 47.9842 88.6584C47.8721 88.69 47.76 88.7215 47.6434 88.7486C47.6658 88.7486 47.6838 88.7486 47.7062 88.7486C47.5941 88.717 47.482 88.6855 47.3654 88.6584C47.2309 88.424 47.186 88.3789 47.2309 88.5232C47.2443 88.5773 47.2533 88.6359 47.2667 88.69C47.2892 88.8027 47.3116 88.9109 47.3385 89.0236C47.3878 89.258 47.4102 89.533 47.5313 89.7449C47.6479 89.9433 47.8407 90.1146 48.0649 90.1777C48.4102 90.2724 48.6926 90.0966 48.8944 89.8261C49.1141 89.533 48.9393 89.0687 48.6523 88.9019C48.307 88.699 47.9528 88.8523 47.7331 89.1453C47.7241 89.1588 47.7151 89.1724 47.7062 89.1814C47.899 89.0687 48.0918 88.956 48.2891 88.8478C48.2756 88.8478 48.2622 88.8523 48.2487 88.8523C48.3608 88.8838 48.4729 88.9154 48.5895 88.9424C48.7061 89.0011 48.7778 89.3302 48.7106 88.9965C48.6926 88.9019 48.6702 88.8117 48.6523 88.717C48.6164 88.5502 48.585 88.3834 48.5492 88.2166C48.4684 87.865 48.2577 87.5223 47.89 87.4186C47.482 87.3059 47.1591 87.5404 46.9305 87.8469C46.7018 88.158 46.4865 88.4781 46.2668 88.7937C46.6838 88.9064 47.1008 89.0191 47.5223 89.1363C47.5582 88.8297 47.5941 88.5187 47.6299 88.2121C47.6703 87.8469 47.2892 87.5359 46.9574 87.5359C46.5583 87.5449 46.3251 87.8605 46.2803 88.2211Z" fill="#727272"/>
<path d="M46.926 75.8729C46.7601 76.5942 46.6794 77.3336 46.6929 78.0729C46.7018 78.7086 47.6345 79.0377 47.9484 78.4156C48.0829 78.1451 48.2174 77.8791 48.3519 77.6086C48.4506 77.4102 48.5223 77.1623 48.7017 77.0225C48.603 77.0811 48.5044 77.1397 48.4057 77.1983C48.4057 77.1938 48.4057 77.1893 48.4102 77.1848C48.195 77.018 47.9797 76.8557 47.76 76.6889C47.8452 77.009 47.9304 77.3291 48.0156 77.6492C48.1232 78.0504 48.6389 78.2938 49.0021 78.0549C49.0649 78.0143 49.1276 77.9692 49.1904 77.9287C49.9078 77.4508 49.2352 76.2786 48.5133 76.761C48.4506 76.8016 48.3878 76.8467 48.325 76.8872C48.6523 77.0225 48.9841 77.1577 49.3115 77.293C49.2263 76.9729 49.1411 76.6528 49.0559 76.3327C48.9797 76.0487 48.7017 75.8323 48.4057 75.8368C47.4596 75.8548 47.1368 77.036 46.787 77.7393C47.204 77.852 47.621 77.9647 48.0425 78.0819C48.0335 77.4553 48.0874 76.8512 48.2264 76.2381C48.4147 75.386 47.1188 75.0253 46.926 75.8729Z" fill="#727272"/>
<path d="M45.6434 65.7562C45.6748 66.2882 45.7017 66.8156 45.7331 67.3476C45.769 68.0149 46.6209 68.2718 46.9886 67.6903C47.2487 67.2755 47.5087 66.8652 47.7688 66.4505C47.3832 66.4505 46.9931 66.4505 46.6075 66.4505C46.7016 66.6128 46.7599 66.7615 46.7689 66.9509C46.8003 67.546 47.4773 67.83 47.9168 67.4288C48.2576 67.1222 48.4773 66.7525 48.6432 66.3242C48.3158 66.4595 47.984 66.5947 47.6567 66.73C47.6567 66.739 47.6567 66.748 47.6522 66.7525C47.5939 66.6533 47.5356 66.5542 47.4773 66.455C47.4908 66.482 47.4998 66.5136 47.5132 66.5406C47.6522 66.8788 47.9571 67.1177 48.3427 67.014C48.6566 66.9284 48.9526 66.5226 48.8136 66.18C48.697 65.905 48.5759 65.7382 48.3338 65.5578C47.9526 65.2738 47.4863 65.5984 47.3473 65.9636C47.2666 66.171 47.1276 66.3242 46.9662 66.473C47.3473 66.6308 47.7329 66.7931 48.1141 66.9509C48.0916 66.5271 47.984 66.1349 47.7688 65.7697C47.5043 65.3234 46.8765 65.3414 46.6075 65.7697C46.3474 66.1845 46.0873 66.5947 45.8273 67.0095C46.2443 67.1222 46.6613 67.2349 47.0828 67.3521C47.0514 66.8202 47.0245 66.2927 46.9931 65.7607C46.9393 64.8906 45.5941 64.8861 45.6434 65.7562Z" fill="#727272"/>
<path d="M46.0067 56.8162C45.9663 57.1589 45.9484 57.5015 45.9573 57.8441C45.9708 58.313 46.5358 58.7458 46.9707 58.4302C47.1949 58.2679 47.3339 58.0831 47.4101 57.8171C47.4281 57.754 47.446 57.6818 47.455 57.6187C47.4639 57.5601 47.4998 57.5556 47.4505 57.6007C47.2173 57.8171 46.9707 58.1282 46.5985 57.6773C46.6389 57.7269 46.6254 57.7224 46.5985 57.6638C46.6299 57.7314 46.6524 57.8081 46.6837 57.8757C46.7375 57.9929 46.8183 58.0966 46.9079 58.1868C47.1859 58.4618 47.5985 58.5159 47.9348 58.322C48.2531 58.1417 48.3562 57.7089 48.1769 57.3978C47.9886 57.0777 47.576 56.974 47.2577 57.1544C47.2442 57.1634 47.2263 57.1724 47.2128 57.1814C47.3249 57.1499 47.437 57.1183 47.5536 57.0912C47.5895 57.0867 47.9123 57.2671 47.8854 57.2761C47.9034 57.3121 47.9034 57.3121 47.8899 57.2806C47.8765 57.2445 47.863 57.2085 47.8451 57.1724C47.7913 57.0417 47.7285 56.9199 47.6299 56.8117C47.4101 56.5818 47.0694 56.4691 46.76 56.5683C46.4685 56.6584 46.2757 56.8929 46.1815 57.1769C46.1591 57.24 46.1502 57.3031 46.1322 57.3708C46.1232 57.4023 46.1143 57.4294 46.1098 57.4609C46.0919 57.5195 46.0919 57.5195 46.1143 57.4609C46.1412 57.3753 46.1995 57.3076 46.2892 57.2626C46.6254 57.4564 46.9617 57.6503 47.3025 57.8486C47.2936 57.506 47.3115 57.1634 47.3518 56.8207C47.3967 56.4691 47.0111 56.131 46.6793 56.1445C46.2802 56.1625 46.056 56.442 46.0067 56.8162Z" fill="#727272"/>
<path d="M45.5945 49.8824C45.469 50.3783 45.5317 50.8877 45.7963 51.3251C46.1102 51.857 46.8321 51.6947 47.0249 51.1628C47.0966 50.9644 46.989 51.2845 47.0563 51.0816C47.0832 51.005 47.1056 51.041 47.0383 51.0726C46.8321 51.1808 46.5541 51.1087 46.4913 50.8382C46.5765 51.1943 46.9756 51.4062 47.3208 51.3115C47.6795 51.2123 47.8768 50.8382 47.7916 50.4775C47.6706 49.9635 47.1146 49.6885 46.6169 49.8058C46.1281 49.9275 45.8905 50.3558 45.729 50.7976C46.1371 50.7435 46.5496 50.6894 46.9576 50.6353C46.8904 50.5181 46.8814 50.5271 46.868 50.3873C46.8769 50.4595 46.8724 50.3693 46.8724 50.3467C46.8814 50.1484 46.8455 50.4279 46.8904 50.234C46.9756 49.8914 46.7783 49.4857 46.4196 49.4C46.0743 49.3279 45.6887 49.5127 45.5945 49.8824Z" fill="#727272"/>
<path d="M26.3673 48.2865C26.17 48.548 25.9907 48.823 25.8337 49.1116C25.5692 49.5849 26.0176 50.3243 26.5915 50.1034C26.7978 50.0268 26.9996 49.9456 27.2058 49.869C26.9323 49.7112 26.6543 49.5534 26.3763 49.3956C26.4122 49.4993 26.4301 49.5669 26.4256 49.6706C26.4211 50.0132 26.7395 50.3784 27.0982 50.3468C27.4345 50.3198 27.7215 50.2386 28.0219 50.0944C28.3492 49.9366 28.4344 49.4632 28.264 49.1702C28.0667 48.8321 27.6722 48.7689 27.3448 48.9267C27.2776 48.9583 27.152 48.9898 27.0982 48.9944C27.3224 49.2198 27.5466 49.4452 27.7708 49.6706C27.7753 49.4542 27.7439 49.2378 27.6722 49.0349C27.5601 48.7148 27.2058 48.4263 26.8426 48.5616C26.6364 48.6382 26.4346 48.7193 26.2283 48.796C26.4794 49.1251 26.735 49.4587 26.9861 49.7878C27.1475 49.4993 27.3224 49.2243 27.5197 48.9628C27.7394 48.6698 27.5645 48.2054 27.2776 48.0386C26.9413 47.8447 26.587 47.9935 26.3673 48.2865Z" fill="#727272"/>
<path d="M22.5605 55.8786C22.3049 56.4421 22.0852 57.0192 21.9058 57.6143C21.7937 57.9839 22.0403 58.3266 22.3766 58.4483C22.6636 58.552 22.973 58.4889 23.2241 58.3266C23.3317 58.2544 23.4035 58.1823 23.4842 58.0876C23.7936 57.7179 23.3676 58.1958 23.1165 57.8848C23.0582 57.7856 22.9999 57.6864 22.9416 57.5872C22.9057 57.461 22.9326 57.7225 22.9326 57.7179C22.9461 57.8216 22.973 57.9298 23.0268 58.0245C23.1299 58.2003 23.3183 58.3446 23.5111 58.3987C23.8743 58.4979 24.3406 58.3581 24.4975 57.9884C24.641 57.6548 24.5962 57.2626 24.2554 57.0642C23.9729 56.8974 23.4797 56.9696 23.3362 57.3077C23.3496 57.2897 23.3631 57.2716 23.381 57.2581C23.4797 57.1995 23.5783 57.1409 23.677 57.0823C23.8115 57.1228 23.946 57.1634 24.0805 57.204C24.1388 57.3032 24.1971 57.4024 24.2554 57.5015C24.2913 57.6278 24.2644 57.3167 24.2554 57.2851C24.2195 57.1499 24.1568 57.0282 24.0671 56.929C23.9012 56.7532 23.6859 56.6495 23.4438 56.636C23.2241 56.6269 23.0223 56.69 22.843 56.8163C22.7578 56.8749 22.686 56.9425 22.6188 57.0237C22.3408 57.3483 22.5336 57.0733 22.7398 57.1454C22.8968 57.4249 23.0537 57.6999 23.2106 57.9794C23.3541 57.497 23.5245 57.0282 23.7308 56.5683C23.8788 56.2347 23.8249 55.8425 23.4887 55.6441C23.1927 55.4683 22.7084 55.5449 22.5605 55.8786Z" fill="#727272"/>
<path d="M21.0719 63.8537C20.9284 64.6291 20.9284 65.382 21.0808 66.1575C21.157 66.5407 21.5696 66.6849 21.9103 66.6308C22.1076 66.5993 22.2915 66.4866 22.4305 66.3378C22.4888 66.2747 22.5426 66.198 22.5919 66.1259C22.6188 66.0853 22.6412 66.0448 22.6636 65.9997C22.704 65.9366 22.6906 65.9411 22.6143 66.0042C22.4933 66.0042 22.3767 66.0042 22.2556 66.0042C22.287 66.0132 22.3184 66.0222 22.3498 66.0312C22.2511 65.9726 22.1525 65.914 22.0538 65.8554C22.0045 65.7517 22 65.7562 22.0449 65.8689C22.0673 65.923 22.0897 65.9771 22.1121 66.0312C22.1839 66.1665 22.2825 66.2747 22.4081 66.3558C22.7085 66.5587 22.982 66.5452 23.3049 66.3964C23.6367 66.2476 23.7174 65.7607 23.547 65.4722C23.3497 65.1296 22.9596 65.08 22.6278 65.2287C22.6054 65.2378 22.5785 65.2513 22.556 65.2603C22.7309 65.2378 22.9013 65.2152 23.0762 65.1927C23.0493 65.1837 23.0224 65.1792 22.9955 65.1701C23.0941 65.2287 23.1928 65.2874 23.2914 65.346C23.3183 65.4361 23.3183 65.4451 23.2959 65.3775C23.2735 65.3054 23.2466 65.2378 23.2152 65.1746C23.1748 65.098 23.13 65.0214 23.0672 64.9582C22.8789 64.7554 22.6188 64.6607 22.3453 64.6877C22.1076 64.7103 21.8969 64.8275 21.731 64.9988C21.6503 65.08 21.583 65.1746 21.5247 65.2738C21.5113 65.3009 21.4933 65.3279 21.4799 65.355C21.3947 65.4812 21.4171 65.4677 21.5516 65.3189C21.8252 65.4767 22.1032 65.6345 22.3812 65.7923C22.278 65.2693 22.2735 64.7328 22.3722 64.2099C22.4395 63.8492 22.2735 63.4795 21.9014 63.3758C21.5696 63.2902 21.1391 63.493 21.0719 63.8537Z" fill="#727272"/>
<path d="M22.0315 73.6142C22.2198 73.9929 22.4036 74.3716 22.5919 74.7503C22.7579 75.0839 23.2107 75.1605 23.5112 74.9937C23.7533 74.8585 23.9192 74.6421 23.9954 74.3716C24.0313 74.2498 24.0537 74.0966 24.0403 73.9703C24.0268 73.8261 24.0896 73.8666 24.0134 73.9343C23.9147 73.9929 23.8161 74.0515 23.7174 74.1101C23.7084 74.1146 23.6995 74.1146 23.6905 74.1191C23.5784 74.0875 23.4663 74.056 23.3497 74.0289C23.5829 74.1642 23.695 74.3806 24.0358 74.3806C24.4393 74.3806 24.529 74.1416 24.7711 73.9027C24.6725 73.9613 24.5738 74.0199 24.4752 74.0785C24.3452 73.9974 24.2151 73.9162 24.0851 73.8306C24.1389 74.1912 24.5918 74.3896 24.9146 74.3039C25.3002 74.1957 25.4392 73.8351 25.3854 73.4699C25.3227 73.0642 24.9415 72.7621 24.5469 72.7215C24.0851 72.6764 23.7847 72.9289 23.565 73.3076C23.6457 73.2265 23.7264 73.1453 23.8071 73.0642C23.7847 73.0822 23.7578 73.1002 23.7353 73.1183C23.8474 73.0867 23.9595 73.0551 24.0761 73.0281C24.0537 73.0281 24.0268 73.0281 24.0044 73.0281C24.1165 73.0596 24.2286 73.0912 24.3452 73.1183C24.2645 73.0732 24.0537 72.8432 23.8744 72.7937C23.6188 72.7215 23.3497 72.7756 23.139 72.9334C22.9507 73.0732 22.8206 73.2806 22.7534 73.5015C22.7085 73.6412 22.7579 73.9252 22.6861 74.0244C22.7668 73.9433 22.8475 73.8621 22.9282 73.781C22.9013 73.7945 22.8744 73.8125 22.843 73.8261C23.148 73.9072 23.4573 73.9884 23.7623 74.0695C23.5739 73.6908 23.3901 73.3121 23.2018 72.9334C22.8072 72.149 21.6458 72.8342 22.0315 73.6142Z" fill="#727272"/>
<path d="M26.1832 83.6587C26.1608 84.2403 26.7617 84.5694 27.2683 84.4116C27.5105 84.335 27.6853 84.1636 27.8019 83.9472C27.8199 83.9112 27.8378 83.8706 27.8557 83.8345C27.9544 83.6767 27.8557 83.7218 27.5508 83.9788C27.4118 83.9608 27.4746 83.9608 27.5732 84.0149C27.8916 84.1907 28.3086 84.0915 28.4925 83.7714C28.6718 83.4603 28.5687 83.023 28.2503 82.8472C27.9185 82.6624 27.5419 82.5542 27.1742 82.7075C26.9859 82.7886 26.8289 82.9239 26.7213 83.1042C26.6899 83.1538 26.6585 83.2124 26.6406 83.271C26.6316 83.289 26.6227 83.3071 26.6137 83.3251C26.8468 83.0636 27.089 83.0411 27.3446 83.2575C27.4029 83.3567 27.4611 83.4558 27.5194 83.555C27.5239 83.5911 27.5284 83.6272 27.5329 83.6632C27.5463 83.3071 27.2145 82.9689 26.8603 82.987C26.4792 83.0005 26.1967 83.28 26.1832 83.6587Z" fill="#727272"/>
<path d="M51.0376 50.1575C51.1183 50.5632 51.2573 50.9419 51.4322 51.3161C51.5981 51.6633 52.051 51.7084 52.3514 51.5596C52.5218 51.4739 52.6608 51.3206 52.7505 51.1538C52.7774 51.1042 52.7953 51.0501 52.8222 50.996C52.9657 50.685 52.8177 51.1538 52.4725 51.1178C52.3604 51.0862 52.2483 51.0546 52.1317 51.0276C52.0555 50.9915 52.2438 51.1133 52.2438 51.1133C52.3155 51.1674 52.3649 51.1989 52.4501 51.235C52.6249 51.3116 52.8043 51.3251 52.9926 51.2981C53.3962 51.2305 53.6338 50.969 53.7863 50.6038C53.9253 50.2657 53.6338 49.8599 53.3155 49.7698C52.9298 49.6616 52.6294 49.905 52.4859 50.2431C52.6429 49.9501 52.8402 49.887 53.0733 50.0538C53.0554 50.0358 53.0374 50.0177 53.015 50.0042C52.9298 49.9186 52.7684 49.8284 52.6518 49.7968C52.4366 49.7382 52.2034 49.7743 52.0151 49.887C51.8582 49.9817 51.7461 50.1304 51.6698 50.2927C51.6519 50.3333 51.6295 50.3784 51.6116 50.4235C51.5622 50.5677 51.5891 50.4325 51.6698 50.3964C51.9748 50.4776 52.2841 50.5587 52.5891 50.6399C52.4635 50.3739 52.3873 50.0944 52.329 49.8058C52.2617 49.4452 51.8313 49.2423 51.4995 49.3325C51.1363 49.4271 50.9704 49.7968 51.0376 50.1575Z" fill="#727272"/>
<path d="M52.5982 57.8982C52.6834 58.3265 52.773 58.7548 52.8582 59.1831C53.0017 59.8909 53.9478 59.7601 54.1541 59.1831C54.2214 58.9892 54.3379 58.863 54.4859 58.7277C54.1317 58.6826 53.7819 58.6375 53.4277 58.5925C53.5443 58.863 53.6653 59.138 53.7819 59.4085C53.9164 59.7195 54.4366 59.8548 54.7011 59.6519C54.8626 59.5302 54.9926 59.422 55.0957 59.2417C55.1316 59.1785 55.1719 59.1019 55.1944 59.0298C55.2033 58.9982 55.2168 58.9667 55.2347 58.9396C55.3423 58.7412 55.1361 58.6781 54.6115 58.7503C54.5621 59.1109 54.9567 59.4265 55.284 59.4265C55.6876 59.4265 55.9073 59.1154 55.9566 58.7503C56.0329 58.1867 55.5082 57.6773 54.9657 57.6773C54.6922 57.6773 54.4455 57.799 54.2617 57.9929C54.1765 58.083 54.1182 58.1822 54.0599 58.2904C54.0241 58.3625 53.8851 58.588 54.0241 58.4843C54.329 58.5654 54.6384 58.6466 54.9433 58.7277C54.8267 58.4572 54.7056 58.1822 54.589 57.9117C54.4052 57.4879 53.8178 57.515 53.5308 57.7765C53.208 58.0695 53.0017 58.4211 52.8538 58.8269C53.2842 58.8269 53.7192 58.8269 54.1496 58.8269C54.0644 58.3986 53.9747 57.9703 53.8895 57.542C53.7236 56.6854 52.4233 57.0461 52.5982 57.8982Z" fill="#727272"/>
<path d="M53.7774 68.2403C53.737 68.5785 53.7774 68.9256 53.8671 69.2502C53.9792 69.6424 54.4903 69.9084 54.8535 69.6559C55.0912 69.4891 55.2347 69.3088 55.3378 69.0383C55.3647 68.9707 55.3871 68.8986 55.4095 68.8264C55.4499 68.6822 55.4095 68.876 55.293 68.894C55.1719 68.894 55.0553 68.894 54.9342 68.894C54.8221 68.849 54.7504 68.7813 54.7325 68.6822C54.719 68.6371 54.7235 68.6506 54.7504 68.7227C54.7639 68.7633 54.7773 68.8084 54.7908 68.849C54.867 69.0563 54.9746 69.2232 55.145 69.3629C55.5127 69.6605 55.9297 69.6109 56.2884 69.3314C56.5754 69.1059 56.5216 68.61 56.2884 68.3756C56.0059 68.0916 55.6248 68.1502 55.3378 68.3756C55.3243 68.3891 55.3064 68.3981 55.293 68.4117C55.3916 68.353 55.4902 68.2944 55.5889 68.2358C55.571 68.2403 55.553 68.2448 55.5351 68.2494C55.6562 68.2494 55.7727 68.2494 55.8938 68.2494C55.9745 68.2629 56.0911 68.5108 56.0418 68.3621C56.0059 68.2448 55.9611 68.1231 55.8983 68.0194C55.71 67.7129 55.3781 67.537 55.0239 67.5731C54.71 67.6047 54.4545 67.803 54.2841 68.0645C54.2123 68.1772 54.163 68.3035 54.1226 68.4297C54.1092 68.4703 54.0823 68.5289 54.0778 68.5694C54.0733 68.6281 54.0644 68.5559 54.1765 68.4793C54.5038 68.6145 54.8356 68.7498 55.1629 68.885C55.1001 68.6641 55.0912 68.4658 55.1181 68.2358C55.1584 67.8707 54.7773 67.5596 54.4455 67.5596C54.0554 67.5641 53.8222 67.8752 53.7774 68.2403Z" fill="#727272"/>
<path d="M53.4053 76.202C53.3694 76.6438 53.4053 77.0766 53.4725 77.5139C53.5532 78.0234 54.2752 78.1541 54.598 77.8115C54.7146 77.6897 54.8356 77.568 54.9612 77.4553C55.0733 77.3561 55.1899 77.2569 55.2796 77.1938C54.9522 77.0586 54.6204 76.9233 54.2931 76.7881C54.3334 76.9053 54.3334 76.77 54.32 76.8963C54.329 76.8016 54.2662 76.9819 54.311 76.9053C54.1362 77.2254 54.2348 77.6447 54.5532 77.8295C54.8626 78.0098 55.2975 77.9106 55.4724 77.586C55.6652 77.2299 55.728 76.8151 55.5934 76.4274C55.4634 76.0577 54.9791 75.7467 54.607 76.0217C54.2662 76.2741 53.9478 76.5446 53.6564 76.8512C54.033 76.9504 54.4052 77.0496 54.7818 77.1487C54.737 76.8557 54.737 76.5131 54.7594 76.193C54.7863 75.8413 54.4321 75.5032 54.0868 75.5167C53.6922 75.5438 53.4367 75.8233 53.4053 76.202Z" fill="#727272"/>
<path d="M52.9748 85.0338C52.7327 85.4441 52.5489 85.8949 52.4457 86.3638C52.365 86.7199 52.5534 87.0941 52.9165 87.1978C53.2932 87.3015 53.616 87.0716 53.7461 86.7244C53.7864 86.6117 53.9209 86.3683 53.9927 86.2736C53.6743 86.2736 53.3605 86.2736 53.0421 86.2736C52.9614 86.1744 52.939 86.0662 52.9704 85.94C52.9121 86.3007 53.0645 86.6658 53.4412 86.774C53.764 86.8642 54.2079 86.6658 54.2707 86.3007C54.3335 85.9265 54.2662 85.5974 53.9972 85.3178C53.764 85.0744 53.2708 85.0338 53.0466 85.3178C52.7865 85.6424 52.5982 85.9715 52.4502 86.3638C52.8807 86.4855 53.3156 86.6027 53.7461 86.7244C53.8313 86.3457 53.9434 86.0482 54.1407 85.7191C54.3245 85.4035 54.2124 84.9752 53.8985 84.7949C53.5802 84.6055 53.1632 84.7182 52.9748 85.0338Z" fill="#727272"/>
<path d="M57.8984 87.7343C57.6204 88.0995 57.4904 88.5503 57.4679 89.0056C57.4545 89.2716 57.6473 89.5286 57.8805 89.6233C58.145 89.7315 58.4006 89.6684 58.6158 89.4835C58.9476 89.1995 59.2795 88.911 59.6113 88.6269C59.257 88.5819 58.9073 88.5368 58.5531 88.4917C58.5262 88.4511 58.5396 88.3925 58.5441 88.3474C58.5486 88.3159 58.6203 88.2077 58.5486 88.3204C58.3558 88.6314 58.4813 89.0642 58.7907 89.2446C59.1136 89.4339 59.5171 89.3122 59.7099 89.0011C59.9386 88.636 59.9341 88.1716 59.7144 87.8019C59.4768 87.4052 58.988 87.3826 58.6562 87.6667C58.3244 87.9507 57.9926 88.2392 57.6608 88.5232C58.0419 88.681 58.4275 88.8433 58.8086 89.0011C58.8176 88.7983 58.7728 89.0913 58.8176 88.8974C58.8356 88.8298 58.8535 88.7577 58.8759 88.6901C58.84 88.7847 58.9297 88.5954 58.9297 88.5909C58.9656 88.5278 59.0059 88.4691 59.0508 88.415C59.2705 88.122 59.0956 87.6577 58.8086 87.4908C58.4724 87.288 58.1226 87.4413 57.8984 87.7343Z" fill="#727272"/>
<path d="M60.3825 78.88C60.2883 79.3939 60.2345 79.9124 60.23 80.4398C60.2211 81.1025 61.1582 81.373 61.4855 80.7825C61.6873 80.4128 61.925 80.0927 62.2209 79.7951C61.9474 79.8312 61.6784 79.8673 61.4048 79.8988C61.3914 79.8898 61.3735 79.8763 61.36 79.8673C61.3017 79.7681 61.2434 79.6689 61.1851 79.5697C61.1717 79.5292 61.2165 79.4029 61.1717 79.5472C61.1403 79.6373 61.1224 79.7816 61.1179 79.8673C61.1089 80.0837 61.1717 80.2956 61.2972 80.4714C61.4407 80.6652 61.6784 80.796 61.925 80.796C62.0595 80.796 62.2164 80.7554 62.333 80.6923C62.3554 80.6788 62.3734 80.6698 62.3958 80.6562C62.5034 80.5886 62.472 80.5841 62.3016 80.6427C62.1895 80.6111 62.0774 80.5796 61.9608 80.5525C61.7815 80.4624 61.768 80.3587 61.786 80.2279C61.7366 80.5886 61.8757 80.9538 62.2568 81.062C62.5707 81.1476 63.0325 80.9538 63.0863 80.5886C63.1401 80.2009 63.1222 79.8087 62.8262 79.5156C62.6783 79.3714 62.4541 79.2857 62.2478 79.2902C62.1133 79.2947 61.9564 79.3398 61.8398 79.4029C61.8084 79.421 61.6604 79.4841 61.7456 79.466C61.8667 79.466 61.9833 79.466 62.1043 79.466C62.0864 79.4615 62.064 79.4525 62.046 79.448C62.1447 79.5066 62.2433 79.5652 62.342 79.6238C62.3868 79.998 62.4272 80.0927 62.4675 79.9078C62.4855 79.8628 62.4944 79.8177 62.5034 79.7681C62.5258 79.6644 62.5348 79.5562 62.5258 79.448C62.5079 79.1505 62.3554 78.8664 62.0819 78.7357C61.8129 78.6004 61.49 78.6185 61.2658 78.8394C60.8937 79.2136 60.5753 79.6373 60.3197 80.0972C60.7367 80.2099 61.1537 80.3226 61.5752 80.4398C61.5797 80.0386 61.6111 79.6373 61.6828 79.2406C61.7456 78.88 61.5842 78.5103 61.212 78.4066C60.8802 78.3164 60.4453 78.5193 60.3825 78.88Z" fill="#727272"/>
<path d="M61.288 69.5703C61.0952 70.0347 61.0907 70.5621 61.2387 71.04C61.445 71.6982 62.3148 71.6667 62.5346 71.04C62.6467 70.7154 62.8484 70.4584 63.104 70.233C62.7229 70.0752 62.3373 69.9129 61.9561 69.7551C61.9696 69.9851 61.9875 70.215 62.001 70.4404C62.0279 70.8371 62.2879 71.0716 62.6736 71.1167C62.8888 71.1437 63.0861 71.0716 63.2654 70.9544C63.3417 70.9048 63.4089 70.8462 63.4672 70.7785C63.4896 70.747 63.5165 70.7199 63.539 70.6929C63.6197 70.6072 63.5524 70.6252 63.3327 70.747C63.2206 70.7154 63.1085 70.6839 62.9919 70.6568C62.956 70.6162 62.9157 70.5757 62.8798 70.5351C62.8484 70.4224 62.817 70.3097 62.7901 70.1925C62.7901 70.2105 62.7901 70.2285 62.7946 70.2466C62.826 70.1338 62.8574 70.0211 62.8843 69.9039C62.8753 69.9174 62.8664 69.9355 62.8574 69.949C62.4 70.6929 63.5659 71.3736 64.0187 70.6298C64.2878 70.1925 64.0636 69.6244 63.5928 69.4531C63.3461 69.3629 63.095 69.381 62.8664 69.5072C62.7722 69.5568 62.6915 69.6289 62.6153 69.7056C62.5973 69.7236 62.5839 69.7461 62.5659 69.7642C62.4763 69.8543 62.5121 69.8543 62.6736 69.7642C62.8978 69.9896 63.122 70.215 63.3461 70.4404C63.3327 70.2105 63.3148 69.9806 63.3013 69.7551C63.261 69.1555 62.6018 68.8805 62.1534 69.2773C61.723 69.6605 61.427 70.1384 61.2387 70.6793C61.6692 70.6793 62.1041 70.6793 62.5346 70.6793C62.4494 70.4043 62.4763 70.1925 62.5839 69.931C62.7229 69.5928 62.4314 69.1871 62.1131 69.0969C61.7274 68.9887 61.427 69.2322 61.288 69.5703Z" fill="#727272"/>
<path d="M60.7275 57.7178C60.7634 58.0965 60.8037 58.4797 60.8396 58.8584C60.871 59.1921 61.0683 59.4806 61.4225 59.5212C61.7454 59.5617 62.0772 59.3679 62.1624 59.0388C62.2341 58.7502 62.3328 58.4888 62.4762 58.2318C62.0906 58.2318 61.7005 58.2318 61.3149 58.2318C61.3822 58.358 61.4494 58.4843 61.5122 58.606C61.7588 59.0703 62.4135 59.0162 62.6735 58.606C62.696 58.5699 62.7273 58.5384 62.7273 58.5248C62.7991 58.4617 62.7498 58.4662 62.5883 58.5384C62.5166 58.5789 62.4449 58.5879 62.3731 58.5744C62.2924 58.4933 62.2117 58.4121 62.131 58.331C62.1265 58.3129 62.122 58.2949 62.1175 58.2769C62.3776 59.1019 63.6779 58.7502 63.4134 57.9162C63.2789 57.4924 62.9112 57.2264 62.4628 57.24C62.0278 57.2535 61.7229 57.5781 61.5077 57.9207C61.8933 57.9207 62.2834 57.9207 62.6691 57.9207C62.6018 57.7945 62.5345 57.6683 62.4718 57.5465C62.2386 57.1047 61.5481 57.1092 61.3104 57.5465C61.1176 57.9027 60.9652 58.2814 60.862 58.6781C61.3014 58.7367 61.7409 58.7998 62.1848 58.8584C62.1489 58.4797 62.1086 58.0965 62.0727 57.7178C62.0368 57.3527 61.7902 57.0416 61.4001 57.0416C61.0638 57.0416 60.6916 57.3527 60.7275 57.7178Z" fill="#727272"/>
<path d="M57.3962 50.1574C57.5666 50.5902 57.7773 50.9509 58.0733 51.3116C58.414 51.7263 59.0553 51.4558 59.1987 51.014C59.3019 50.6894 59.3467 50.3378 59.3153 49.9996C58.8983 50.1124 58.4813 50.2251 58.0598 50.3423C58.1899 50.5947 58.3737 50.8247 58.5934 51.005C58.8759 51.2349 59.2705 51.28 59.544 51.005C59.7817 50.7661 59.8265 50.2792 59.544 50.0492C59.4633 49.9861 59.3871 49.914 59.3243 49.8373C59.257 49.7517 59.3646 49.905 59.3064 49.8103C59.275 49.7607 59.2481 49.7111 59.2212 49.6615C59.0822 49.391 58.7369 49.2693 58.4589 49.3459C58.1943 49.4181 57.9388 49.7066 57.9657 49.9996C57.9926 50.2837 57.9836 50.3964 57.8984 50.6534C58.275 50.5542 58.6472 50.455 59.0239 50.3558C58.9656 50.2882 58.9073 50.2025 58.84 50.0853C58.8086 50.0312 58.7772 49.9726 58.7459 49.9185C58.7369 49.905 58.6652 49.7337 58.6876 49.8013C58.5531 49.4632 58.2392 49.2242 57.858 49.3279C57.5442 49.4136 57.2617 49.8148 57.3962 50.1574Z" fill="#727272"/>
<path d="M64.189 49.6345C64.2428 49.9185 64.3504 50.1935 64.4984 50.446C64.6509 50.703 64.9692 50.8382 65.2562 50.7571C65.5611 50.6714 65.7225 50.4054 65.7494 50.1034C65.7808 49.7878 65.8122 49.4677 65.8436 49.1521C65.5073 49.346 65.171 49.5398 64.8302 49.7382C65.0365 49.8915 65.2427 50.0493 65.449 50.2026C65.7405 50.419 66.2023 50.2521 66.3682 49.9591C66.57 49.6165 66.4175 49.2513 66.1261 49.0349C65.9198 48.8816 65.7136 48.7238 65.5073 48.5705C65.319 48.4308 65.0185 48.4578 64.8302 48.5705C64.6105 48.7013 64.5208 48.9087 64.4984 49.1566C64.467 49.4722 64.4356 49.7923 64.4042 50.1079C64.8213 49.9952 65.2383 49.8825 65.6597 49.7652C65.5521 49.5849 65.5252 49.4993 65.4849 49.2784C65.4176 48.9177 64.9872 48.7148 64.6553 48.805C64.2877 48.9042 64.1262 49.2738 64.189 49.6345Z" fill="#727272"/>
<path d="M67.1753 57.7494C67.2381 58.1236 67.3278 58.4843 67.4488 58.845C67.5878 59.2732 68.0362 59.4536 68.4353 59.2507C68.6819 59.1245 68.8389 58.89 68.9016 58.6241C68.933 58.5023 68.9375 58.3716 68.9465 58.2408C68.9465 58.1958 68.951 58.1507 68.9554 58.1056C68.9465 58.2949 68.8209 58.4167 68.5743 58.4798C68.4622 58.4482 68.3501 58.4167 68.2335 58.3896C68.7626 58.6511 69.1752 58.8269 69.7805 58.6917C70.6235 58.5023 70.2692 57.1949 69.4218 57.3888C69.211 57.4384 69.09 57.3121 68.9106 57.222C68.5967 57.0687 68.238 57.0912 67.9645 57.3076C67.7582 57.4699 67.6641 57.6953 67.6282 57.9523C67.6147 58.0515 67.6103 58.1462 67.6013 58.2454C67.5923 58.331 67.5968 58.3355 67.6058 58.2679C67.5609 58.4212 67.6103 58.3581 67.7582 58.0876C68.0856 58.2228 68.4174 58.3581 68.7447 58.4933C68.6281 58.1326 68.5384 57.772 68.4712 57.3978C68.4084 57.0371 67.969 56.8343 67.6417 56.9244C67.265 57.0191 67.1126 57.3888 67.1753 57.7494Z" fill="#727272"/>
<path d="M68.7405 67.5325C68.6957 67.8751 68.6464 68.2178 68.6015 68.5604C68.5612 68.8625 68.6284 69.16 68.9109 69.3223C69.1441 69.4621 69.5477 69.4485 69.727 69.2186C69.8257 69.0879 69.9243 68.9797 70.0812 68.9256C69.7988 68.7092 69.5118 68.4928 69.2293 68.2719C69.2383 68.5424 69.2427 68.8129 69.2517 69.0834C69.2652 69.5342 69.6687 69.8408 70.1037 69.7371C70.3189 69.6875 70.4983 69.5793 70.6686 69.444L70.8345 69.3133C70.8211 69.2953 70.6059 69.3088 70.5565 69.2547C70.4983 69.1555 70.44 69.0563 70.3817 68.9571C70.3906 68.9797 70.3951 69.0022 70.4041 69.0248C70.6866 69.8408 71.9869 69.4891 71.6999 68.6641C71.543 68.2178 71.1843 67.9653 70.709 67.9788C70.5162 67.9833 70.3144 68.0465 70.1485 68.1456C70.014 68.2268 69.8884 68.3936 69.736 68.4297C70.0185 68.6461 70.3054 68.8625 70.5879 69.0834C70.579 68.8129 70.5745 68.5424 70.5655 68.2719C70.5565 67.8571 70.1395 67.4739 69.7136 67.6182C69.3414 67.7489 69.0096 67.9473 68.7674 68.2629C69.1441 68.4838 69.5163 68.7002 69.8929 68.9211C69.9378 68.5784 69.9871 68.2358 70.0319 67.8932C70.0812 67.5325 69.9467 67.1673 69.5611 67.0591C69.2562 66.9735 68.7899 67.1673 68.7405 67.5325Z" fill="#727272"/>
<path d="M66.8078 78.7311C66.7136 79.1143 66.6194 79.4975 66.5298 79.8807C66.4446 80.2324 66.6374 80.6201 67.0006 80.7147C67.3234 80.8004 67.6328 80.7373 67.8974 80.5254C68.1081 80.3541 68.1843 80.0881 68.3771 79.9213C68.2785 79.9799 68.1798 80.0385 68.0812 80.0971C68.1126 80.0836 68.144 80.0701 68.1798 80.0565C68.0588 80.0565 67.9422 80.0565 67.8211 80.0565C67.8525 80.061 67.8839 80.0701 67.9198 80.0746C67.7853 79.9709 67.6507 79.8672 67.5162 79.7635C67.5072 79.7094 67.5117 79.7229 67.5252 79.8131C67.5566 79.8897 67.588 79.9664 67.6238 80.043C67.7135 80.1918 67.8525 80.2955 68.005 80.3631C68.1664 80.4352 68.3457 80.4442 68.5206 80.4082C68.5789 80.4037 68.6372 80.3856 68.691 80.3631C68.9556 80.2774 68.9018 80.2504 68.5296 80.2864C68.4489 80.2053 68.3682 80.1242 68.2875 80.043C68.2964 80.0565 68.3099 80.0746 68.3188 80.0881C68.2875 79.9754 68.2561 79.8627 68.2292 79.7455C68.2292 79.7635 68.2292 79.786 68.2247 79.8041C68.1843 80.6742 69.5295 80.6742 69.5699 79.8041C69.5878 79.4344 69.3367 79.1233 68.9914 79.0151C68.83 78.9655 68.6507 78.961 68.4847 79.0016C68.4265 79.0151 68.1978 79.0602 68.265 79.0692C68.3771 79.1008 68.4892 79.1323 68.6058 79.1594C68.5834 79.1458 68.5655 79.1278 68.543 79.1143C68.6237 79.1954 68.7045 79.2766 68.7852 79.3577C68.7538 79.2946 68.682 79.0557 68.5699 78.9385C68.3906 78.7581 68.0633 78.677 67.8211 78.7446C67.6238 78.7987 67.4534 78.9159 67.3189 79.0647C67.2472 79.1458 67.1844 79.236 67.1306 79.3307C67.1127 79.3622 67.0992 79.3938 67.0813 79.4209C66.9557 79.5922 67.0499 79.5877 67.3638 79.4028C67.5207 79.6823 67.6776 79.9573 67.8346 80.2369C67.9287 79.8537 68.0229 79.4704 68.1126 79.0872C68.3099 78.2442 67.014 77.8835 66.8078 78.7311Z" fill="#727272"/>
<path d="M65.382 86.8641C65.4807 86.9408 65.5793 87.0174 65.678 87.094C65.9649 87.3194 66.4313 87.1391 66.5972 86.8506C66.7989 86.5034 66.6465 86.1473 66.355 85.9264C66.2564 85.8497 66.1577 85.7731 66.0591 85.6965C65.7721 85.471 65.3058 85.6514 65.1399 85.9399C64.9381 86.287 65.095 86.6387 65.382 86.8641Z" fill="#727272"/>
</g>
<g clip-path="url(#clip1_18_305)">
<path d="M35.2989 44.7375C35.858 40.1055 32.6249 36.647 29.1799 33.9798C27.1733 32.424 25.2118 31.126 23.9042 28.8989C23.2368 27.7564 22.5965 26.4673 22.2223 25.2004C21.4918 22.7332 22.7544 18.8569 25.8792 21.7019C27.6784 23.3422 28.0932 25.4582 29.4685 27.2808C30.2441 28.3121 31.4345 28.8633 32.6745 28.2054C36.4036 26.2317 33.5177 19.3859 32.6835 16.6654C31.6735 13.3714 31.1414 10.2019 32.8414 7.03241C33.4005 5.99221 34.0273 4.92089 34.7442 3.98293C35.2087 3.37837 35.7994 2.72491 36.4622 2.30705C37.833 1.43577 38.6582 1.43577 40.1733 1.89809C41.7875 2.39151 41.8011 2.47598 42.1302 4.00516C42.2835 4.71196 42.3467 5.48989 42.3827 6.21892C42.4594 7.76144 42.3331 9.3173 42.013 10.8331C41.4133 13.7093 39.6863 16.252 39.3075 19.1725C39.0279 21.3196 39.2218 28.1432 42.8111 27.503C47.0182 26.7518 46.7161 20.0927 50.9096 19.2037C54.3997 18.4613 56.1041 22.2442 54.6251 24.8403C53.8225 26.2539 52.4878 27.3474 51.2027 28.3121C48.912 30.0324 46.1118 30.9304 43.8618 32.6685C39.79 35.8246 41.1427 40.7856 42.8156 44.8531C43.1403 45.6399 44.4479 45.2931 44.1188 44.4974C42.9915 41.7547 41.5756 38.3985 43.0997 35.5179C44.5111 32.8507 48.2356 31.9172 50.639 30.3436C53.8856 28.2187 58.5436 24.218 55.793 20.0082C53.4933 16.4831 49.0383 17.6611 46.937 20.6128C46.3012 21.5063 45.8097 22.4887 45.2461 23.4267C44.989 23.8534 44.732 24.2846 44.4299 24.6847C44.2135 24.9425 43.997 25.1959 43.7806 25.4537C42.0716 25.8272 41.1878 25.3782 41.1292 24.0979C39.4157 20.5061 41.4899 16.8254 42.6533 13.5137C43.5191 11.051 43.8888 8.42824 43.7039 5.82773C43.5777 4.02739 43.3883 1.59136 41.6703 0.515596C40.1597 -0.431253 37.8375 0.111074 36.354 0.848994C34.1445 1.95143 32.7918 4.28966 31.6735 6.37006C28.8011 11.7133 31.7005 16.4209 32.7692 21.8042C32.909 22.5198 33.2652 24.089 33.0262 24.8847C32.2957 25.5427 31.5653 26.1961 30.8303 26.854C30.4109 26.325 30.0953 25.7471 29.8743 25.1115C29.4505 24.1824 29.0041 23.3156 28.3863 22.4887C27.4123 21.1818 25.5726 19.0347 23.6923 19.1414C21.866 19.2481 20.7929 21.1507 20.599 22.7377C20.3104 25.0848 21.5865 27.5875 22.7408 29.579C25.9423 35.0956 34.866 37.1271 33.9461 44.7464C33.8469 45.5865 35.1996 45.5821 35.2989 44.7375Z" fill="#46A358"/>
<path d="M46.9866 22.5732C47.9606 17.7056 46.1209 13.2558 45.7376 8.45045C45.5076 5.57878 46.7477 0.986786 50.6887 2.2937C53.6241 3.26723 54.7379 6.71678 54.5395 9.47731C54.3952 11.4955 53.4122 17.4166 57.3532 16.8654C60.7351 16.3942 62.4801 10.8376 64.1215 8.48157C65.5283 6.4634 68.6351 3.51616 71.3677 4.33854C75.6965 5.64102 72.9234 10.762 70.9303 12.7757C67.571 16.1675 63.9907 19.1681 61.0282 22.9466C59.3102 25.1381 57.8222 28.7388 61.6324 29.7212C63.0979 30.0991 64.5093 29.5968 65.8304 29.0011C66.8946 28.521 67.9092 27.9475 69.041 27.6319C71.1062 27.054 73.5005 27.5075 72.1342 30.0368C68.9373 35.9624 61.6189 31.5927 56.8978 34.0776C52.8936 36.1891 51.9602 40.8567 52.339 44.9508C52.4157 45.7999 53.7729 45.8088 53.6918 44.9508C53.4257 42.0969 53.6557 39.0119 55.6578 36.7492C58.246 33.8242 61.7 34.8911 65.127 34.8244C68.6261 34.7578 73.1308 33.0863 73.8568 29.2322C74.6504 25.0092 69.7714 25.8271 67.2689 26.8451C66.1641 27.2941 65.1315 27.992 63.9772 28.321C63.0618 28.5832 61.6144 28.7255 60.8929 27.8764C60.194 27.0496 60.7576 25.6582 61.1905 24.9559C62.7732 22.3776 65.1992 20.026 67.3545 17.9056C70.3261 14.9806 75.3944 11.8778 74.957 7.10797C74.6233 3.45837 71.2054 2.12034 68.0535 3.48949C66.1596 4.31187 64.5949 5.61879 63.3594 7.25022C61.7451 9.37952 60.8839 12.3045 58.9585 14.1804C58.2641 14.8561 57.5832 16.292 56.032 14.8828C55.3421 14.256 55.5495 12.5846 55.6217 11.7266C55.7164 10.602 55.9599 9.50399 55.9238 8.37043C55.8652 6.45451 55.2204 4.51191 53.9623 3.02718C51.3019 -0.102313 46.7341 0.0354912 44.9665 3.96069C43.9114 6.30781 44.3758 8.99278 44.8177 11.4288C45.467 15.0251 46.4185 18.5546 45.6835 22.2176C45.5166 23.0577 46.8198 23.4178 46.9866 22.5732Z" fill="#46A358"/>
<path d="M46.6846 31.0059C46.0488 35.589 45.0071 40.0788 43.5552 44.4796C43.2846 45.2976 44.5923 45.6487 44.8583 44.8352C46.3103 40.4344 47.3519 35.9446 47.9877 31.3615C48.1049 30.5169 46.8018 30.1569 46.6846 31.0059Z" fill="#46A358"/>
<path d="M30.5058 43.9729C30.3299 40.4433 27.8454 38.0606 24.9865 36.247C23.1333 35.069 21.1042 34.0865 19.5124 32.5529C18.827 31.895 17.5509 30.6192 17.4833 29.5968C17.2533 26.1872 21.4784 28.8411 22.4163 29.6279C23.0747 30.1836 24.0351 29.2412 23.3723 28.6855C21.8978 27.4453 19.2509 25.8316 17.2263 26.7651C15.594 27.5164 15.8645 29.379 16.4913 30.7215C19.1291 36.4248 28.8058 37.0782 29.153 43.9729C29.1936 44.8264 30.5509 44.8308 30.5058 43.9729Z" fill="#46A358"/>
<path d="M60.8388 45.2931C62.5253 42.786 64.7483 40.7367 67.4718 39.3587C69.9519 38.1051 73.0271 37.8873 75.2231 36.1136C77.7437 34.0776 77.8745 29.0856 73.7035 29.2145C72.8332 29.2411 72.8332 30.5747 73.7035 30.5481C75.3493 30.7703 76.0167 31.6683 75.7146 33.2375C75.3764 34.1399 74.8037 34.8511 73.9966 35.3668C73.0091 36.0558 71.8096 36.3714 70.6733 36.727C69.2259 37.1805 67.8145 37.6561 66.4753 38.3673C63.6886 39.8521 61.4115 42.0303 59.6664 44.6219C59.184 45.3376 60.3564 46.0044 60.8388 45.2931Z" fill="#46A358"/>
<path d="M64.5139 33.5619C58.7828 34.6288 56.668 40.2521 55.3107 45.173C55.0807 46.0043 56.3884 46.3555 56.6139 45.5287C57.8494 41.0523 59.6305 35.8246 64.8746 34.8511C65.7269 34.6866 65.3661 33.4019 64.5139 33.5619Z" fill="#46A358"/>
<path d="M34.2933 13.2647C33.6214 10.602 34.4601 7.68587 36.6336 5.89886C37.071 5.52101 37.567 5.23206 38.1126 5.03202C39.6141 5.34764 40.313 6.1389 40.2093 7.40581C40.2364 8.14373 40.0921 8.87276 39.9162 9.58401C39.56 11.0198 38.9332 12.3846 38.4688 13.7893C37.2739 17.4077 35.5559 23.3244 38.7844 26.405C39.0956 26.7029 39.5781 26.2317 39.2624 25.9338C36.4307 23.2355 37.8826 18.0479 38.8521 14.8161C39.6908 12.0156 41.9679 8.29488 40.4303 5.35208C39.2308 3.05831 36.4803 4.92089 35.3124 6.26337C33.5854 8.25042 33.0037 10.922 33.6395 13.4425C33.7477 13.8604 34.397 13.6826 34.2933 13.2647Z" fill="#46A358"/>
<path d="M48.5877 24.0623C48.9755 23.2133 49.7601 22.013 50.8107 21.8708C52.4114 21.653 53.2366 23.6356 52.3799 24.9469C51.5727 26.1827 50.0351 27.0451 48.7094 27.5741C46.5044 28.4498 45.0254 29.659 43.4247 31.3882C43.1316 31.7038 43.6095 32.1794 43.9026 31.8594C44.8721 30.8058 45.8641 29.7123 47.1267 28.9833C48.1322 28.4009 49.3001 28.1742 50.3102 27.6052C51.5412 26.9073 53.5342 25.4004 53.6785 23.8801C53.7958 22.6532 52.4836 21.2307 51.2571 21.1551C49.7781 21.0617 48.5426 22.5554 48.006 23.7289C47.8256 24.1112 48.4118 24.4535 48.5877 24.0623Z" fill="#46A358"/>
<path d="M23.3002 24.8359C23.449 23.6668 23.8954 23.2356 24.635 23.5512C24.8965 23.5557 25.1129 23.649 25.2933 23.8313C25.6495 24.0624 25.884 24.4047 26.0959 24.7648C26.4747 25.4094 26.6505 26.1606 26.9301 26.8452C27.2863 27.7254 27.7553 28.4411 28.5624 28.9656C28.9277 29.2057 29.2659 28.6278 28.9051 28.3877C26.9211 27.0897 27.4757 23.7201 24.9957 22.9022C23.5077 22.4132 22.0106 23.6846 22.7186 25.1693C22.9034 25.5605 23.4851 25.2227 23.3002 24.8359Z" fill="#46A358"/>
<path d="M47.5323 7.58367C47.1806 5.66329 49.2322 4.13411 50.8014 5.53438C51.6672 6.30786 52.0009 7.73036 52.0054 8.84169C52.0144 10.3486 51.3155 11.6956 51.6131 13.207C51.6942 13.6293 52.3481 13.4515 52.2669 13.0292C51.8926 11.131 52.9658 9.31289 52.4833 7.34362C52.1947 6.16561 51.6086 4.85425 50.373 4.40972C48.1455 3.61401 46.5087 5.73887 46.8784 7.75703C46.9596 8.17934 47.6089 8.00152 47.5323 7.58367Z" fill="#46A358"/>
<path d="M47.194 11.98C48.2943 14.2604 48.8354 16.2608 48.7542 18.7902C48.7407 19.2214 49.417 19.2169 49.4306 18.7902C49.5162 16.1319 48.93 14.0293 47.7802 11.6466C47.5908 11.2598 47.0091 11.5977 47.194 11.98Z" fill="#46A358"/>
<path d="M64.7349 10.073C65.3887 8.60163 66.6242 7.67256 68.0536 6.97465C68.464 6.76128 68.8878 6.58791 69.3297 6.45011C71.2371 7.09023 71.7196 7.97485 70.7772 9.11284C70.3263 9.81076 69.6724 10.4375 69.1088 11.051C66.9624 13.3848 64.6447 15.5452 62.1962 17.5634C61.8625 17.839 62.3405 18.3102 62.6742 18.0346C64.8882 16.212 66.994 14.2738 68.96 12.1934C70.1414 10.9443 72.4095 9.09062 71.9135 7.1169C70.926 3.20504 64.9784 7.86816 64.1487 9.73963C63.9773 10.1264 64.5635 10.4642 64.7349 10.073Z" fill="#46A358"/>
<path d="M60.9157 19.986C58.7558 21.5507 57.4436 23.8312 57.1956 26.4583C57.155 26.8851 57.8314 26.8806 57.872 26.4583C58.0974 24.0845 59.3059 21.973 61.2584 20.5594C61.6056 20.3105 61.2674 19.7281 60.9157 19.986Z" fill="#46A358"/>
<path d="M65.1948 31.1082C65.6367 30.8459 66.0786 30.5703 66.543 30.3436C66.8948 30.1524 67.2645 30.0058 67.6523 29.9035C68.3783 29.6057 68.6218 30.1613 68.3783 31.5705C67.9003 32.4996 65.312 32.5351 64.5094 32.4862C62.5028 32.3707 60.6135 31.8283 58.634 32.4284C58.2191 32.5529 58.395 33.1975 58.8143 33.073C61.1907 32.3484 63.5039 33.402 65.9027 33.1397C67.2059 32.993 69.0501 32.4018 69.6995 31.1571C70.0602 30.4636 69.9745 29.5479 69.1854 29.17C67.8913 28.5521 65.8712 29.9213 64.8521 30.5303C64.4824 30.757 64.8205 31.3349 65.1948 31.1082Z" fill="#46A358"/>
<path d="M55.1393 33.5886C51.6221 36.4025 50.3415 40.67 49.9853 44.973C49.9492 45.3998 50.6256 45.3998 50.6617 44.973C51.0044 40.8345 52.2354 36.7626 55.6172 34.0598C55.9554 33.7887 55.4729 33.3219 55.1393 33.5886Z" fill="#46A358"/>
<path d="M40.0023 34.7222C38.9562 36.5092 38.9877 38.4562 39.2177 40.4566C39.4116 42.137 39.6325 43.7862 40.8094 45.0931C41.098 45.4131 41.576 44.9419 41.2874 44.6219C40.1331 43.3416 39.9888 41.5635 39.8354 39.9276C39.6731 38.2251 39.6957 36.5759 40.5885 35.0556C40.8049 34.6866 40.2232 34.3532 40.0023 34.7222Z" fill="#46A358"/>
<path d="M21.343 30.3303C19.386 30.357 20.1616 32.3885 21.2077 33.1175C22.5154 34.0288 24.0034 34.6378 25.3922 35.4068C27.029 36.3137 27.6874 37.8428 28.9454 39.1186C29.2475 39.4254 29.7255 38.9542 29.4234 38.6474C28.1744 37.3805 27.5701 35.8647 25.9604 34.9578C25.1487 34.5 24.2965 34.1132 23.4803 33.6732C23.0565 33.4464 22.6326 33.2197 22.2268 32.9663C22.0644 32.8686 21.8976 32.7663 21.7353 32.6685C20.9281 32.3662 20.8019 31.8106 21.3475 31.0015C21.7758 30.9926 21.7758 30.3258 21.343 30.3303Z" fill="#46A358"/>
<path d="M72.2381 33.402C72.2607 34.2911 71.8458 34.7756 70.9846 34.8601C70.5697 35.0245 70.1594 35.1846 69.7445 35.349C69.1268 35.5935 68.5045 35.838 67.8868 36.0825C66.4438 36.6515 64.9964 37.225 63.5535 37.794C63.1521 37.9495 63.328 38.5986 63.7338 38.4385C65.3842 37.7851 67.0345 37.1361 68.6849 36.4826C69.9069 35.9981 71.4671 35.6513 72.5538 34.8956C73.4962 34.2377 73.5232 32.873 72.2336 32.7352C71.8052 32.6863 71.8097 33.3576 72.2381 33.402Z" fill="#46A358"/>
<path d="M62.0022 38.7185C60.1895 40.4077 58.7601 42.3903 57.75 44.6396C57.5742 45.0264 58.1558 45.3687 58.3362 44.9775C59.3237 42.7815 60.708 40.8433 62.4846 39.1941C62.7958 38.8963 62.3178 38.4251 62.0022 38.7185Z" fill="#46A358"/>
<path d="M30.5507 41.6346C31.0693 42.3903 31.4029 43.2038 31.5608 44.1018C31.6329 44.5241 32.2867 44.3463 32.2146 43.924C32.0478 42.9771 31.6825 42.0925 31.1369 41.2968C30.8934 40.9456 30.3072 41.279 30.5507 41.6346Z" fill="#46A358"/>
</g>
<defs>
<clipPath id="clip0_18_305">
<rect width="55" height="48" fill="white" transform="translate(19 45)"/>
</clipPath>
<clipPath id="clip1_18_305">
<rect width="61" height="46" fill="white" transform="translate(16)"/>
</clipPath>
</defs>
</svg>
