<svg width="83" height="90" viewBox="0 0 83 90" fill="none" xmlns="http://www.w3.org/2000/svg">
<circle cx="37" cy="53" r="37" fill="#46A358" fill-opacity="0.13"/>
<g clip-path="url(#clip0_18_306)">
<path d="M22.249 40.7766C39.0217 39.0238 55.9384 41.7144 72.67 39.29C73.4516 39.1753 73.1184 37.9918 72.3409 38.1064C55.7286 40.5104 38.9065 37.8075 22.249 39.548C21.4673 39.6299 21.4591 40.8585 22.249 40.7766Z" fill="#727272"/>
<path d="M22.0846 39.5726C20.4472 40.0804 20.6529 42.21 21.521 43.3403C22.9444 45.1913 26.141 45.2323 28.2268 45.0357C29.0125 44.962 29.0166 43.7334 28.2268 43.8071C26.8774 43.9341 25.4786 43.9218 24.1663 43.5368C23.4833 43.3362 22.7634 43.0536 22.3726 42.4147C22.171 42.083 21.7843 40.9527 22.4137 40.7602C23.1707 40.5227 22.8457 39.3351 22.0846 39.5726Z" fill="#727272"/>
<path d="M69.7821 39.6749C70.6501 39.6217 71.4894 39.4742 72.3533 39.3596C73.7233 39.1753 74.4268 39.5439 74.6654 40.9772C74.8628 42.1689 74.11 42.517 73.0486 42.8528C72.5467 43.0126 72.0201 43.1108 71.5017 43.2132C70.1153 43.4835 68.7248 43.6187 67.3137 43.6678C66.5238 43.6965 66.5197 44.9251 67.3137 44.8964C69.7204 44.8104 76.4796 44.7203 76.2164 40.9322C76.1505 39.9861 75.2331 38.6798 74.3733 38.2538C73.0897 37.615 71.0903 38.3644 69.778 38.4463C68.9922 38.4955 68.9881 39.7241 69.7821 39.6749Z" fill="#727272"/>
<path d="M24.055 44.7735C23.8864 47.374 20.9243 48.8442 19.3527 50.6298C18.1186 52.0344 17.1477 53.6521 16.4442 55.3762C14.9302 59.0701 14.6422 63.2105 15.4116 67.1051C16.9954 75.0949 23.0594 81.6883 30.6333 84.5182C31.3779 84.7967 31.6988 83.609 30.9624 83.3346C23.0965 80.3942 16.9831 73.0268 16.3002 64.5783C15.9752 60.5649 16.8268 56.3877 19.0771 53.0091C20.9449 50.2079 25.0547 48.4142 25.2892 44.7735C25.3386 43.9872 24.1044 43.9872 24.055 44.7735Z" fill="#727272"/>
<path d="M70.823 44.2494C70.823 47.4805 73.1803 49.5077 75.5787 51.3137C77.6398 52.8617 79.236 54.3688 80.2522 56.7973C81.1367 58.9064 81.6263 61.1833 81.7373 63.4644C82.1405 71.8556 77.2449 79.6448 69.7204 83.3101C69.0087 83.6582 69.6299 84.7189 70.3416 84.3708C77.3313 80.9676 82.2598 74.0507 82.918 66.3024C83.2513 62.3833 82.5684 58.0668 80.569 54.6309C78.368 50.8428 72.0571 49.1064 72.053 44.2494C72.0571 43.459 70.823 43.459 70.823 44.2494Z" fill="#727272"/>
<path d="M30.267 83.6172C29.4689 85.3823 30.9006 86.9057 32.6778 86.9876C34.6073 87.0818 36.6437 86.6354 38.5773 86.5535C40.8194 86.4553 43.0615 86.4512 45.3036 86.4839C53.6715 86.6109 62.0352 87.2456 70.366 86.1153C70.6499 86.0785 70.7939 85.7672 70.8185 85.5215C70.8844 84.8335 70.8268 84.3257 70.6252 83.6787C70.3907 82.9251 69.2018 83.2486 69.4362 84.0063C69.6461 84.5018 69.6954 85.0096 69.5843 85.5215C69.7366 85.325 69.8847 85.1284 70.0369 84.9277C63.5409 85.8082 56.9873 85.5871 50.4543 85.3823C47.2866 85.284 44.1147 85.1939 40.9469 85.2471C39.4988 85.2717 38.0507 85.3291 36.6026 85.4273C35.8127 85.4806 35.0269 85.5543 34.2411 85.6321C33.6611 85.6894 30.4439 86.185 31.3284 84.2274C31.6534 83.5189 30.592 82.8965 30.267 83.6172Z" fill="#727272"/>
<path d="M22.0803 51.2236C17.0531 57.3788 16.6622 65.9707 21.1753 72.5232C21.3974 72.8467 21.9322 72.5395 21.7101 72.2119C17.3616 65.9011 17.6619 57.6041 22.5205 51.6536C22.7633 51.3547 22.3313 50.9165 22.0803 51.2236Z" fill="#727272"/>
<path d="M22.4136 74.8042C22.8167 75.3857 23.2775 75.9222 23.7918 76.4095C24.0797 76.6798 24.5158 76.2498 24.2278 75.9754C23.7506 75.525 23.3228 75.0335 22.9443 74.4971C22.7221 74.1735 22.1873 74.4766 22.4136 74.8042Z" fill="#727272"/>
<path d="M25.8652 78.3385C26.2643 78.3385 26.2643 77.7242 25.8652 77.7242C25.4662 77.7242 25.4662 78.3385 25.8652 78.3385Z" fill="#727272"/>
<path d="M69.6297 44.2822C69.3129 45.4616 69.0414 46.6492 69.5062 47.8287C69.9382 48.9221 70.8145 49.9091 71.5591 50.8141C73.3446 52.9764 76.9978 55.1592 77.1706 58.1734C77.1912 58.5665 77.8083 58.5706 77.7877 58.1734C77.6602 55.9169 75.9899 54.4712 74.4512 53.0051C73.4598 52.0591 72.5259 51.0558 71.6702 49.9828C71.0942 49.2579 70.4442 48.4921 70.111 47.6198C69.7037 46.5591 69.9382 45.5148 70.2221 44.4501C70.3249 44.0651 69.7284 43.9013 69.6297 44.2822Z" fill="#727272"/>
<path d="M77.438 59.5986C77.5244 60.3849 77.6108 61.1711 77.6972 61.9574C77.7383 62.3465 78.3595 62.3506 78.3143 61.9574C78.2279 61.1711 78.1415 60.3849 78.0551 59.5986C78.014 59.2095 77.3969 59.2054 77.438 59.5986Z" fill="#727272"/>
<path d="M77.4956 63.575C77.5409 63.8044 77.5039 64.0214 77.4175 64.2344C77.3557 64.39 77.4874 64.5702 77.6314 64.6111C77.8083 64.6603 77.9482 64.5497 78.0099 64.3982C78.1374 64.0788 78.1539 63.747 78.088 63.4112C78.0181 63.0263 77.4216 63.1901 77.4956 63.575Z" fill="#727272"/>
<path d="M50.7423 59.0824C52.2151 56.2976 54.9879 54.4752 58.2091 54.6349C62.0434 54.8233 66.0751 58.1446 63.3887 62.0679C61.813 64.3653 58.9826 65.8519 56.8968 67.662C54.5806 69.6728 52.4619 71.8883 50.5078 74.2554C50.0059 74.8615 50.8739 75.7338 51.3799 75.1236C54.3585 71.5157 57.7278 68.4647 61.4304 65.6144C63.9029 63.706 66.6387 60.8106 65.1371 57.4566C63.8947 54.68 60.4636 53.3163 57.5715 53.3982C54.1651 53.4965 51.2442 55.4949 49.6726 58.4599C49.3065 59.1602 50.372 59.7827 50.7423 59.0824Z" fill="#727272"/>
<path d="M50.4504 58.1283C47.8133 55.1756 44.5222 52.1328 40.2518 52.3539C37.0841 52.5178 34.3565 54.9094 33.8999 58.0587C33.3362 61.8959 36.216 65.2623 39.0218 67.486C42.4693 70.2175 47.6693 71.1636 50.2488 74.8657C50.6972 75.5127 51.7669 74.8984 51.3143 74.2473C49.7058 71.9376 47.3649 70.7499 44.8801 69.5541C41.7205 68.0348 38.6063 66.155 36.5739 63.2228C34.3071 59.9589 34.6815 54.9667 39.0752 53.7709C43.3744 52.6038 46.9947 56.1093 49.5741 58.9965C50.1048 59.5903 50.977 58.718 50.4504 58.1283Z" fill="#727272"/>
</g>
<g clip-path="url(#clip1_18_306)">
<path d="M46.472 12.629C45.2831 14.782 43.4689 16.5069 41.1405 17.4C40.2314 17.7507 39.0343 17.7303 39.1536 16.4866C39.2276 15.7118 40.0668 15.0389 40.6757 14.676C41.7123 14.0562 43.0411 13.8523 44.1559 13.3711C44.8799 13.0571 44.2547 12.001 43.5347 12.315C41.5437 13.1754 39.3634 13.3793 38.2321 15.4671C37.6274 16.5844 37.4299 18.1381 38.7916 18.7742C40.2684 19.4633 42.3006 18.3501 43.5265 17.5672C45.2296 16.4825 46.5666 15.0022 47.5333 13.2447C47.92 12.5556 46.8546 11.9357 46.472 12.629Z" fill="#46A358"/>
<path d="M43.8966 12.1191C42.3992 12.2822 40.9141 12.2904 39.429 12.0131C38.886 11.9111 38.3471 11.7725 37.8205 11.6053C37.3763 11.4748 36.9484 11.3158 36.5247 11.1241C35.8953 10.333 35.957 9.89262 36.7181 9.79476C38.9477 8.09024 42.4321 9.88039 44.6206 10.7082C45.3652 10.9895 45.6861 9.80699 44.9497 9.5297C43.045 8.80793 40.9552 7.72324 38.8613 7.95567C37.6601 8.08616 34.8915 8.60404 34.5707 10.1006C33.8302 13.5667 42.1071 13.5422 43.8966 13.3465C44.6782 13.2568 44.6864 12.0335 43.8966 12.1191Z" fill="#46A358"/>
<path d="M45.353 9.55003C43.4812 8.07794 41.8192 5.78622 41.9097 3.30285C41.9509 2.19777 42.6584 1.72882 43.6828 2.22631C44.2463 2.49952 44.6372 3.19683 44.9457 3.72286C45.6615 4.95435 45.9618 6.36119 46.2251 7.74356C46.3732 8.51427 47.5621 8.18804 47.414 7.41734C47.019 5.35398 46.4554 3.20498 44.9169 1.66358C44.0078 0.754228 42.4939 -0.289687 41.4243 0.933651C38.9231 3.79218 42.1977 8.61621 44.4808 10.4145C45.0979 10.8998 45.9782 10.0394 45.353 9.55003Z" fill="#46A358"/>
<path d="M47.3849 7.75594C47.6564 5.79044 48.5203 2.05111 50.7993 1.41497C52.9179 0.827768 52.7081 4.20418 52.1157 5.32149C51.5192 6.44697 50.3468 7.50311 49.4952 8.44508C48.9687 9.02821 49.8367 9.89678 50.3673 9.30958C51.5891 7.95575 53.4156 6.40211 53.6789 4.49778C53.8846 3.02162 53.7735 0.791068 52.1321 0.138621C50.6347 -0.456736 49.1538 0.89709 48.3022 1.96139C47.0475 3.52727 46.4634 5.4683 46.1919 7.42156C46.0849 8.20042 47.2738 8.53479 47.3849 7.75594Z" fill="#46A358"/>
<path d="M50.4538 9.46468C51.8895 8.27397 54.5552 7.44617 56.3077 8.51863C58.5785 9.91324 55.3615 10.7492 54.3002 10.8185C53.1648 10.896 52.0294 10.8267 50.9022 10.6962C50.1165 10.6065 50.1206 11.8298 50.9022 11.9195C52.7452 12.1316 55.234 12.4048 56.9494 11.4995C58.0149 10.9368 58.7801 9.57478 58.126 8.42892C57.3937 7.14442 55.3327 6.8345 53.9957 6.87121C52.3379 6.92014 50.8446 7.55627 49.5858 8.60019C48.9728 9.10583 49.8491 9.97033 50.4538 9.46468Z" fill="#46A358"/>
<path d="M50.5853 11.8786C51.8565 12.3434 53.1194 13.0448 53.8434 14.2274C54.7485 15.7117 54.769 18.4438 52.1362 17.9341C49.8202 17.4855 48.1459 15.047 47.6728 12.9306C47.5 12.164 46.3111 12.4862 46.4839 13.2569C46.9035 15.1408 47.9525 16.8045 49.524 17.9586C50.7581 18.8679 52.9261 19.9526 54.3782 18.9209C55.8715 17.8607 55.8715 15.6668 55.1969 14.1581C54.3988 12.3801 52.6998 11.3485 50.9227 10.696C50.1657 10.4269 49.8449 11.6094 50.5853 11.8786Z" fill="#46A358"/>
<path d="M38.1043 15.2469C34.5007 17.4 31.8432 19.7977 31.2137 24.112C30.5267 28.7974 31.6251 33.6948 32.6289 38.2579C32.7975 39.0286 33.9864 38.7024 33.8178 37.9317C32.9292 33.8946 32.02 29.7108 32.2957 25.5556C32.596 21.0251 34.9655 18.5499 38.7214 16.3071C39.4043 15.8994 38.7872 14.8391 38.1043 15.2469Z" fill="#46A358"/>
<path d="M54.008 13.8644C59.0474 14.2559 62.614 18.2685 63.9674 22.8641C65.4402 27.8676 64.6174 33.1361 63.8152 38.1762C63.6918 38.9469 64.8807 39.2772 65.0041 38.5025C65.9421 32.5897 66.8841 26.3099 64.4611 20.6091C62.6263 16.2907 58.817 13.0163 54.008 12.6411C53.214 12.5799 53.2181 13.8033 54.008 13.8644Z" fill="#46A358"/>
<path d="M39.3263 17.7833C33.2996 22.1302 35.2536 31.9577 36.4713 38.0662C36.6235 38.8369 37.8165 38.5107 37.6602 37.74C37.0226 34.543 36.4302 31.3093 36.4919 28.0389C36.5536 24.8582 37.1583 20.8498 39.9475 18.8394C40.5851 18.3786 39.9721 17.3184 39.3263 17.7833Z" fill="#46A358"/>
<path d="M46.0931 13.8278C43.8511 17.249 42.4031 21.074 41.8765 25.1273C41.6009 27.2518 41.5803 29.4049 41.8354 31.5335C42.111 33.8579 42.8638 36.0925 43.1435 38.4168C43.234 39.1875 44.4723 39.1998 44.3777 38.4168C43.8922 34.3594 42.6417 30.6242 42.9708 26.473C43.3122 22.1628 44.7932 18.0605 47.1627 14.4435C47.5905 13.7829 46.5251 13.1712 46.0931 13.8278Z" fill="#46A358"/>
<path d="M49.1088 17.6079C50.9477 20.6173 51.3344 24.0223 51.6552 27.4598C51.9885 31.0361 52.26 34.6164 52.4903 38.2007C52.5397 38.9837 53.7738 38.9877 53.7245 38.2007C53.4653 34.1433 53.1732 30.0859 52.7536 26.0408C52.4245 22.8642 51.8692 19.7528 50.1743 16.9881C49.7629 16.3193 48.6933 16.931 49.1088 17.6079Z" fill="#46A358"/>
<path d="M54.724 18.1789C59.319 23.9082 59.4713 31.2237 59.3067 38.2049C59.2903 38.9919 60.5244 38.9919 60.5408 38.2049C60.7136 30.8404 60.4174 23.3291 55.5961 17.3144C55.1024 16.6986 54.2344 17.5713 54.724 18.1789Z" fill="#46A358"/>
<path d="M46.9532 19.6713C46.8833 19.9445 46.8174 20.2136 46.7475 20.4868C46.6529 20.8701 47.2453 21.0333 47.344 20.6499C47.4139 20.3767 47.4798 20.1076 47.5497 19.8344C47.6443 19.4551 47.0519 19.292 46.9532 19.6713Z" fill="#46A358"/>
<path d="M48.2861 21.7957C48.2861 22.1015 48.2861 22.4074 48.2861 22.7132C48.2861 23.1087 48.9032 23.1087 48.9032 22.7132C48.9032 22.4074 48.9032 22.1015 48.9032 21.7957C48.9032 21.4002 48.2861 21.4002 48.2861 21.7957Z" fill="#46A358"/>
<path d="M45.3074 23.7328C45.2745 24.1732 45.2375 24.6177 45.2046 25.0581C45.1758 25.4495 45.7929 25.4495 45.8217 25.0581C45.8546 24.6177 45.8916 24.1732 45.9245 23.7328C45.9533 23.3413 45.3362 23.3413 45.3074 23.7328Z" fill="#46A358"/>
<path d="M49.3145 25.8735C49.3145 26.2813 49.3145 26.6891 49.3145 27.0968C49.3145 27.4924 49.9315 27.4924 49.9315 27.0968C49.9315 26.6891 49.9315 26.2813 49.9315 25.8735C49.9315 25.478 49.3145 25.478 49.3145 25.8735Z" fill="#46A358"/>
<path d="M46.9487 28.1163C46.9487 28.5567 46.9487 29.0012 46.9487 29.4416C46.9487 29.8371 47.5658 29.8371 47.5658 29.4416C47.5658 29.0012 47.5658 28.5567 47.5658 28.1163C47.5658 27.7207 46.9487 27.7207 46.9487 28.1163Z" fill="#46A358"/>
<path d="M45.6118 32.6019C45.6118 33.2135 45.6118 33.8252 45.6118 34.4369C45.6118 34.8324 46.2289 34.8324 46.2289 34.4369C46.2289 33.8252 46.2289 33.2135 46.2289 32.6019C46.2289 32.2063 45.6118 32.2063 45.6118 32.6019Z" fill="#46A358"/>
<path d="M43.7816 28.6016C43.8515 29.0094 43.9256 29.4171 43.9955 29.8249C44.0613 30.2123 44.6578 30.0492 44.592 29.6618C44.522 29.254 44.448 28.8462 44.3781 28.4385C44.3081 28.0552 43.7116 28.2183 43.7816 28.6016Z" fill="#46A358"/>
<path d="M48.4996 34.6409C48.5325 35.0486 48.5696 35.4564 48.6025 35.8642C48.6354 36.2557 49.2525 36.2557 49.2196 35.8642C49.1866 35.4564 49.1496 35.0486 49.1167 34.6409C49.0838 34.2494 48.4626 34.2453 48.4996 34.6409Z" fill="#46A358"/>
<path d="M50.347 30.0533C50.3799 30.4611 50.4169 30.8688 50.4498 31.2766C50.4827 31.664 51.0998 31.6681 51.0669 31.2766C51.034 30.8688 50.9969 30.4611 50.964 30.0533C50.9311 29.6618 50.3141 29.6577 50.347 30.0533Z" fill="#46A358"/>
<path d="M57.4306 16.401C57.9078 16.8128 58.385 17.2247 58.8622 17.6325C59.1625 17.8894 59.5986 17.4571 59.2982 17.2002C58.821 16.7884 58.3439 16.3765 57.8667 15.9687C57.5705 15.7118 57.1303 16.14 57.4306 16.401Z" fill="#46A358"/>
<path d="M57.6901 19.8058C57.9575 20.2829 58.229 20.7641 58.4964 21.2412C58.6898 21.5837 59.2246 21.2779 59.0312 20.9313C58.7638 20.4542 58.4923 19.973 58.2249 19.4959C58.0275 19.1534 57.4968 19.4633 57.6901 19.8058Z" fill="#46A358"/>
<path d="M60.1622 20.0056C60.4666 20.4174 60.771 20.8293 61.0754 21.2371C61.3058 21.551 61.8447 21.2452 61.6102 20.9271C61.3058 20.5153 61.0014 20.1034 60.697 19.6956C60.4625 19.3857 59.9277 19.6875 60.1622 20.0056Z" fill="#46A358"/>
<path d="M61.6846 25.3394C61.7874 26.053 61.8944 26.7666 61.9972 27.4802C62.0548 27.8676 62.6472 27.7045 62.5937 27.3171C62.4909 26.6035 62.3839 25.8899 62.2811 25.1763C62.2194 24.7889 61.627 24.9561 61.6846 25.3394Z" fill="#46A358"/>
<path d="M59.6114 23.5084C59.7142 23.8469 59.8171 24.1894 59.9199 24.5279C60.0351 24.903 60.6275 24.744 60.5164 24.3648C60.4136 24.0263 60.3107 23.6838 60.2079 23.3453C60.0927 22.9702 59.4962 23.1292 59.6114 23.5084Z" fill="#46A358"/>
<path d="M62.8816 31.1746C62.9268 31.6599 62.9186 32.1452 62.8404 32.6263C62.7787 33.0096 63.3711 33.1768 63.4369 32.7894C63.5233 32.2512 63.5521 31.717 63.5028 31.1746C63.4616 30.7873 62.8445 30.7832 62.8816 31.1746Z" fill="#46A358"/>
<path d="M61.4502 33.1115C61.4502 33.4867 61.4502 33.8578 61.4502 34.2329C61.4502 34.6285 62.0673 34.6285 62.0673 34.2329C62.0673 33.8578 62.0673 33.4867 62.0673 33.1115C62.0673 32.716 61.4502 32.716 61.4502 33.1115Z" fill="#46A358"/>
<path d="M62.0879 22.8928C62.2565 23.3006 62.4293 23.7084 62.598 24.1162C62.6638 24.2711 62.8037 24.3771 62.9764 24.3282C63.1204 24.2915 63.2562 24.1039 63.1904 23.9531C63.0217 23.5453 62.8489 23.1375 62.6803 22.7297C62.6144 22.5748 62.4746 22.4687 62.3018 22.5177C62.1578 22.5544 62.0262 22.742 62.0879 22.8928Z" fill="#46A358"/>
<path d="M60.9355 29.9513C60.9355 30.1878 60.9355 30.4284 60.9355 30.6649C60.9355 31.0604 61.5526 31.0604 61.5526 30.6649C61.5526 30.4284 61.5526 30.1878 61.5526 29.9513C61.5526 29.5557 60.9355 29.5557 60.9355 29.9513Z" fill="#46A358"/>
<path d="M62.1699 36.7817C62.1534 37.0712 62.0835 37.3485 61.9765 37.6176C61.9148 37.7726 62.0465 37.952 62.1905 37.9928C62.3673 38.0417 62.5072 37.9316 62.5689 37.7807C62.7006 37.4586 62.7664 37.1283 62.787 36.7817C62.8116 36.3861 62.1946 36.3902 62.1699 36.7817Z" fill="#46A358"/>
<path d="M36.2902 18.8842C36.0804 19.186 35.8706 19.4877 35.6567 19.7895C35.4305 20.1157 35.9653 20.4216 36.1915 20.0994C36.4013 19.7976 36.6111 19.4959 36.825 19.1941C37.0472 18.8679 36.5124 18.5621 36.2902 18.8842Z" fill="#46A358"/>
<path d="M34.5295 23.3453C34.4513 23.7163 34.3772 24.0874 34.2991 24.4626C34.2209 24.8459 34.8133 25.0131 34.8956 24.6257C34.9737 24.2546 35.0478 23.8835 35.1259 23.5084C35.2041 23.1251 34.6076 22.9619 34.5295 23.3453Z" fill="#46A358"/>
<path d="M34.332 21.1229C34.007 21.551 33.7643 22.0241 33.5997 22.5338C33.4763 22.9089 34.0728 23.068 34.1962 22.6969C34.3484 22.2361 34.5747 21.8202 34.8668 21.4328C35.1054 21.1147 34.5665 20.813 34.332 21.1229Z" fill="#46A358"/>
<path d="M33.0773 25.1803C33.0033 25.69 32.9251 26.1956 32.8511 26.7053C32.7935 27.0887 33.39 27.2558 33.4476 26.8685C33.5216 26.3587 33.5998 25.8531 33.6738 25.3434C33.7314 24.956 33.1349 24.7888 33.0773 25.1803Z" fill="#46A358"/>
<path d="M33.6944 28.1163C33.6409 28.626 33.6739 29.1276 33.7726 29.6292C33.8466 30.0165 34.4431 29.8534 34.3691 29.466C34.2827 29.0175 34.2662 28.5689 34.3156 28.1163C34.3485 27.7248 33.7314 27.7289 33.6944 28.1163Z" fill="#46A358"/>
<path d="M34.2003 31.9903C34.2332 32.2962 34.2702 32.602 34.3032 32.9078C34.3196 33.0709 34.4307 33.2137 34.6117 33.2137C34.7639 33.2137 34.9408 33.075 34.9202 32.9078C34.8873 32.602 34.8503 32.2962 34.8174 31.9903C34.8009 31.8272 34.6898 31.6845 34.5088 31.6845C34.3566 31.6845 34.1839 31.8231 34.2003 31.9903Z" fill="#46A358"/>
<path d="M33.2008 34.2902C33.4394 34.6776 33.6122 35.0854 33.7192 35.5298C33.8138 35.9131 34.4062 35.75 34.3156 35.3667C34.1964 34.8774 33.9989 34.4125 33.7356 33.9803C33.5258 33.6459 32.9951 33.9558 33.2008 34.2902Z" fill="#46A358"/>
<path d="M34.5171 36.8633C34.587 37.0345 34.6528 37.2017 34.7228 37.373C34.7845 37.5239 34.9284 37.634 35.1012 37.585C35.2493 37.5443 35.381 37.3648 35.3151 37.2099C35.2452 37.0386 35.1794 36.8714 35.1095 36.7002C35.0477 36.5493 34.9038 36.4392 34.731 36.4881C34.587 36.5248 34.4554 36.7083 34.5171 36.8633Z" fill="#46A358"/>
</g>
<defs>
<clipPath id="clip0_18_306">
<rect width="68" height="49" fill="white" transform="translate(15 38)"/>
</clipPath>
<clipPath id="clip1_18_306">
<rect width="35" height="39" fill="white" transform="translate(31)"/>
</clipPath>
</defs>
</svg>
